<svg version="1.2" xmlns="http://www.w3.org/2000/svg" viewBox="0 0 3710 3710" width="1500" height="1500">
	<title>Wavy_Tech-31_Single-11-ai</title>
	<defs>
		<linearGradient id="g1" x2="1" gradientUnits="userSpaceOnUse" gradientTransform="matrix(1934.806,-3698.663,3701.23,1936.149,-79.873,3017.145)">
			<stop offset="0" stop-color="#fcb148"/>
			<stop offset=".318" stop-color="#ffc444"/>
			<stop offset=".866" stop-color="#f8924f"/>
			<stop offset="1" stop-color="#f8924f"/>
		</linearGradient>
		<linearGradient id="g2" x2="1" gradientUnits="userSpaceOnUse" gradientTransform="matrix(1934.806,-3698.663,3701.23,1936.149,-1285.118,5435.711)">
			<stop offset="0" stop-color="#fcb148"/>
			<stop offset=".318" stop-color="#ffc444"/>
			<stop offset=".866" stop-color="#f8924f"/>
			<stop offset="1" stop-color="#f8924f"/>
		</linearGradient>
		<linearGradient id="g3" x2="1" gradientUnits="userSpaceOnUse" gradientTransform="matrix(-3514.555,3887.903,-3847.524,-3478.054,3610.614,1908.522)">
			<stop offset="0" stop-color="#fcb148"/>
			<stop offset=".318" stop-color="#ffc444"/>
			<stop offset=".866" stop-color="#f8924f"/>
			<stop offset="1" stop-color="#f8924f"/>
		</linearGradient>
		<linearGradient id="g4" x2="1" gradientUnits="userSpaceOnUse" gradientTransform="matrix(1512.427,0,0,1832.949,1033.918,976.191)">
			<stop offset="0" stop-color="#fcb148"/>
			<stop offset=".318" stop-color="#ffc444"/>
			<stop offset=".866" stop-color="#f8924f"/>
			<stop offset="1" stop-color="#f8924f"/>
		</linearGradient>
		<clipPath clipPathUnits="userSpaceOnUse" id="cp1">
			<path d="m1858.83 567.48c-897.98 0-999.59 767.07-999.59 767.07h-257.55v69.7l506.29 696.29 618.63-808.29h-243.66l344.81-404.19c0 0 396.27 70.81 533.04 116.74 176.75 65.16 315.75 213.05 315.75 213.05 0 0-138.04-650.37-817.72-650.37z"/>
		</clipPath>
		<linearGradient id="g5" x2="1" gradientUnits="userSpaceOnUse" gradientTransform="matrix(1615.721,-1950.775,1805.09,1495.058,-297.061,2402.581)">
			<stop offset="0" stop-color="#aa80f9"/>
			<stop offset=".996" stop-color="#6165d7"/>
		</linearGradient>
		<linearGradient id="g6" x2="1" gradientUnits="userSpaceOnUse" gradientTransform="matrix(653.508,-895.635,1612.293,1176.424,1548.859,1352.554)">
			<stop offset="0" stop-color="#aa80f9"/>
			<stop offset=".996" stop-color="#6165d7"/>
		</linearGradient>
		<linearGradient id="g7" x2="1" gradientUnits="userSpaceOnUse" gradientTransform="matrix(-2030.549,-125.63,90.797,-1467.544,2442.649,3308.969)">
			<stop offset="0" stop-color="#311944"/>
			<stop offset="1" stop-color="#893976"/>
		</linearGradient>
		<linearGradient id="g8" x2="1" gradientUnits="userSpaceOnUse" gradientTransform="matrix(2654.491,-0.193,.134,1846.934,576.976,2088.242)">
			<stop offset=".004" stop-color="#e38ddd"/>
			<stop offset="1" stop-color="#9571f6"/>
		</linearGradient>
		<linearGradient id="g9" x2="1" gradientUnits="userSpaceOnUse" gradientTransform="matrix(1115.256,544.594,-529.528,1084.404,429.459,2168.472)">
			<stop offset="0" stop-color="#f57e53"/>
			<stop offset=".318" stop-color="#ffc444"/>
			<stop offset=".996" stop-color="#f36f56"/>
		</linearGradient>
		<linearGradient id="g10" x2="1" gradientUnits="userSpaceOnUse" gradientTransform="matrix(180.489,0,0,181.96,791.264,2450.707)">
			<stop offset="0" stop-color="#ff9085"/>
			<stop offset="1" stop-color="#fb6fbb"/>
		</linearGradient>
		<linearGradient id="g11" x2="1" gradientUnits="userSpaceOnUse" gradientTransform="matrix(169.023,-6.253,.374,10.117,794.029,2499.665)">
			<stop offset="0" stop-color="#ff9085"/>
			<stop offset="1" stop-color="#fb6fbb"/>
		</linearGradient>
		<linearGradient id="g12" x2="1" gradientUnits="userSpaceOnUse" gradientTransform="matrix(169.168,-6.258,.355,9.592,796.248,2539.525)">
			<stop offset="0" stop-color="#ff9085"/>
			<stop offset="1" stop-color="#fb6fbb"/>
		</linearGradient>
		<linearGradient id="g13" x2="1" gradientUnits="userSpaceOnUse" gradientTransform="matrix(169.314,-6.263,.335,9.065,798.47,2579.433)">
			<stop offset="0" stop-color="#ff9085"/>
			<stop offset="1" stop-color="#fb6fbb"/>
		</linearGradient>
		<linearGradient id="g14" x2="1" gradientUnits="userSpaceOnUse" gradientTransform="matrix(101.337,0,0,143.353,831.238,2469.726)">
			<stop offset="0" stop-color="#ff9085"/>
			<stop offset="1" stop-color="#fb6fbb"/>
		</linearGradient>
		<linearGradient id="g15" x2="1" gradientUnits="userSpaceOnUse" gradientTransform="matrix(2541.984,-0.185,.054,744.275,662.051,2746.257)">
			<stop offset="0" stop-color="#fb6fbb"/>
			<stop offset="1" stop-color="#ff9085"/>
		</linearGradient>
		<linearGradient id="g16" x2="1" gradientUnits="userSpaceOnUse" gradientTransform="matrix(370.032,-10.471,2.547,90.024,800.905,2998.239)">
			<stop offset="0" stop-color="#fb6fbb"/>
			<stop offset="1" stop-color="#ff9085"/>
		</linearGradient>
		<linearGradient id="g17" x2="1" gradientUnits="userSpaceOnUse" gradientTransform="matrix(450.698,-12.753,2.507,88.598,1338.027,2971.52)">
			<stop offset="0" stop-color="#fb6fbb"/>
			<stop offset="1" stop-color="#ff9085"/>
		</linearGradient>
		<linearGradient id="g18" x2="1" gradientUnits="userSpaceOnUse" gradientTransform="matrix(224.022,-33.193,33.845,228.423,1725.872,2290.115)">
			<stop offset="0" stop-color="#ff9085"/>
			<stop offset="1" stop-color="#fb6fbb"/>
		</linearGradient>
		<linearGradient id="g19" x2="1" gradientUnits="userSpaceOnUse" gradientTransform="matrix(-339.066,-883.114,1133.141,-435.063,3027.168,2720.882)">
			<stop offset="0" stop-color="#444b8c"/>
			<stop offset=".996" stop-color="#26264f"/>
		</linearGradient>
		<linearGradient id="g20" x2="1" gradientUnits="userSpaceOnUse" gradientTransform="matrix(1657.885,2085.248,-1294.343,1029.073,2123.522,2103.98)">
			<stop offset="0" stop-color="#ff9085"/>
			<stop offset="1" stop-color="#fb6fbb"/>
		</linearGradient>
		<linearGradient id="g21" x2="1" gradientUnits="userSpaceOnUse" gradientTransform="matrix(-62.796,-0.534,.371,-43.649,2587.197,3221.28)">
			<stop offset="0" stop-color="#444b8c"/>
			<stop offset=".996" stop-color="#26264f"/>
		</linearGradient>
		<linearGradient id="g22" x2="1" gradientUnits="userSpaceOnUse" gradientTransform="matrix(17.507,-106.01,50.803,8.39,2610.376,3281.922)">
			<stop offset="0" stop-color="#ffc444"/>
			<stop offset=".996" stop-color="#f36f56"/>
		</linearGradient>
		<linearGradient id="g23" x2="1" gradientUnits="userSpaceOnUse" gradientTransform="matrix(-58.491,-0.497,.43,-50.621,2831.961,3234.649)">
			<stop offset="0" stop-color="#444b8c"/>
			<stop offset=".996" stop-color="#26264f"/>
		</linearGradient>
		<linearGradient id="g24" x2="1" gradientUnits="userSpaceOnUse" gradientTransform="matrix(2.546,-95.424,52.031,1.388,2863.452,3277.323)">
			<stop offset="0" stop-color="#ffc444"/>
			<stop offset=".996" stop-color="#f36f56"/>
		</linearGradient>
		<linearGradient id="g25" x2="1" gradientUnits="userSpaceOnUse" gradientTransform="matrix(-73.737,-637.466,215.11,-24.882,3983.704,3192.407)">
			<stop offset="0" stop-color="#40447e"/>
			<stop offset=".996" stop-color="#3c3b6b"/>
		</linearGradient>
		<linearGradient id="g26" x2="1" gradientUnits="userSpaceOnUse" gradientTransform="matrix(-73.214,-632.942,212.414,-24.57,4335.323,3150.818)">
			<stop offset="0" stop-color="#40447e"/>
			<stop offset=".996" stop-color="#3c3b6b"/>
		</linearGradient>
		<linearGradient id="g27" x2="1" gradientUnits="userSpaceOnUse" gradientTransform="matrix(-453.909,283.46,-522.182,-836.179,2575.381,2004.126)">
			<stop offset="0" stop-color="#40447e"/>
			<stop offset=".996" stop-color="#3c3b6b"/>
		</linearGradient>
		<linearGradient id="g28" x2="1" gradientUnits="userSpaceOnUse" gradientTransform="matrix(2094.904,2634.921,-3594.408,2857.749,1525.238,2106.45)">
			<stop offset="0" stop-color="#ff9085"/>
			<stop offset="1" stop-color="#fb6fbb"/>
		</linearGradient>
		<linearGradient id="g29" x2="1" gradientUnits="userSpaceOnUse" gradientTransform="matrix(126.438,245.664,-278.125,143.145,2573.858,1820.369)">
			<stop offset="0" stop-color="#ffc444"/>
			<stop offset=".996" stop-color="#f36f56"/>
		</linearGradient>
		<linearGradient id="g30" x2="1" gradientUnits="userSpaceOnUse" gradientTransform="matrix(126.971,-136.078,142.705,133.153,3310.15,1317.081)">
			<stop offset="0" stop-color="#ffc444"/>
			<stop offset=".996" stop-color="#f36f56"/>
		</linearGradient>
		<linearGradient id="g31" x2="1" gradientUnits="userSpaceOnUse" gradientTransform="matrix(1211.636,4197.729,-3057.146,882.417,1761.47,1988.282)">
			<stop offset="0" stop-color="#ff9085"/>
			<stop offset="1" stop-color="#fb6fbb"/>
		</linearGradient>
		<linearGradient id="g32" x2="1" gradientUnits="userSpaceOnUse" gradientTransform="matrix(22.794,-100.311,60.801,13.816,2998.149,1778.821)">
			<stop offset="0" stop-color="#ffc444"/>
			<stop offset=".996" stop-color="#f36f56"/>
		</linearGradient>
		<linearGradient id="g33" x2="1" gradientUnits="userSpaceOnUse" gradientTransform="matrix(20.138,-88.624,99.354,22.576,2436.008,1756.975)">
			<stop offset="0" stop-color="#ffc444"/>
			<stop offset=".996" stop-color="#f36f56"/>
		</linearGradient>
	</defs>
	<style>
		.s0 { fill: #bfc8d6 } 
		.s1 { opacity: .4;mix-blend-mode: soft-light;fill: #ffffff } 
		.s2 { fill: #d8dee8 } 
		.s3 { opacity: .3;mix-blend-mode: multiply;fill: #d8dee8 } 
		.s4 { opacity: .3;mix-blend-mode: multiply;fill: #bfc8d6 } 
		.s5 { fill: url(#g1) } 
		.s6 { fill: url(#g2) } 
		.s7 { fill: url(#g3) } 
		.s8 { opacity: .3;mix-blend-mode: multiply;fill: url(#g4) } 
		.s9 { fill: url(#g5) } 
		.s10 { opacity: .4;mix-blend-mode: multiply;fill: url(#g6) } 
		.s11 { fill: #ffffff } 
		.s12 { fill: url(#g7) } 
		.s13 { fill: url(#g8) } 
		.s14 { fill: #f4f7fa } 
		.s15 { fill: url(#g9) } 
		.s16 { fill: url(#g10) } 
		.s17 { fill: url(#g11) } 
		.s18 { fill: url(#g12) } 
		.s19 { fill: url(#g13) } 
		.s20 { fill: #fec045 } 
		.s21 { fill: url(#g14) } 
		.s22 { opacity: .1;mix-blend-mode: multiply;fill: url(#g15) } 
		.s23 { fill: url(#g16) } 
		.s24 { fill: url(#g17) } 
		.s25 { opacity: .3;mix-blend-mode: multiply;fill: url(#g18) } 
		.s26 { fill: url(#g19) } 
		.s27 { fill: url(#g20) } 
		.s28 { fill: url(#g21) } 
		.s29 { fill: url(#g22) } 
		.s30 { fill: url(#g23) } 
		.s31 { fill: url(#g24) } 
		.s32 { fill: url(#g25) } 
		.s33 { opacity: .3;mix-blend-mode: multiply;fill: url(#g26) } 
		.s34 { fill: url(#g27) } 
		.s35 { fill: url(#g28) } 
		.s36 { fill: url(#g29) } 
		.s37 { fill: url(#g30) } 
		.s38 { fill: url(#g31) } 
		.s39 { fill: url(#g32) } 
		.s40 { fill: url(#g33) } 
	</style>
	<g id="Illustration">
		<g id="&lt;Group&gt;">
			<g id="&lt;Group&gt;">
				<path id="&lt;Path&gt;" class="s0" d="m656.5 2177.4c97.9 41.2 176.1 80.2 154.8 203-34.4 197.6 74.4 317.9 197.6 370.5 119 50.9 416.9 120 555.8-4.4q7.4-6.6 14.2-13.9c-31.6-4.7-174.8 111.8-223.4-189-48.7-300.7-169-160.3-281.6-279.6-112.6-119.2 78.2-233 41.6-537.8-10.1-83.4-112-197.5-190.2-222.2-67.7-21.4-142.8-12.5-212 15.6-1.3 0.6-2.8 1.2-4.1 1.7-90.8 38.1-170.8 109.3-210.1 188.5-83.4 168.6-25.8 390.7 157.4 467.6z"/>
				<path id="&lt;Path&gt;" class="s1" d="m656.5 2177.4c97.9 41.2 176.1 80.2 154.8 203-34.4 197.6 74.4 317.9 197.6 370.5 119 50.9 416.9 120 555.8-4.4-59.1 20.8-130.6 35.6-191.7 28.4-87.4-10.1-168.3-76.1-218.4-145.5-41.4-57.4-67.7-124-108.5-181.8-28.3-40.1-71.2-66-99.9-105.4-27.9-38.4-45.9-84.5-61.5-129-19.5-55.7-24.8-114.2-21.3-172.8 9.4-160.7 96.3-370.6-71.5-479.2-25.6-16.6-53.6-29.6-82.7-39.9-90.8 38.1-170.8 109.3-210.1 188.5-83.4 168.6-25.8 390.7 157.4 467.6z"/>
			</g>
			<g id="&lt;Group&gt;">
				<g id="&lt;Group&gt;">
					<path id="&lt;Path&gt;" class="s2" d="m2932.7 771.9c-60.1 103.4-237 164.3-171.1 311.4 19.1 42.7 48.2 84.6 51.2 132.6 3 49.2-38.6 83.7-66.6 119-29.3 36.8-50.6 75.5-54 123.4-5 70.7 41.3 119.9 74.7 176.9 38.5 65.7 9.5 106.8-39.7 155.7-105.4 104.7-38.5 267.2-53.7 396-15.1 127.5-81.7 223.1-201.3 272.2-58.1 24-120.5 36.5-182.6 44-48 5.9-100.8 1.9-150.3 5.5q-0.1 0.1-0.2 0.1c-7.1 0.5-14.1 2.1-21 2.1-8.6 0-17.1 2.5-25.3 4.3 80-17.6 244.1-227.1 218.3-341.7-25.7-114.5-91.6-197.6-13.5-310.1 78.2-112.4-0.8-122.4-75.3-242.7-74.4-120.2-85.9-217.6 18.9-277.5 104.7-59.9 98.6-60.4 21.2-353.8-77.3-293.5 206.2-517.1 378.1-559 44-10.8 112.8-3.9 153.7 15.6 7.3 3.5 14.3 7.4 21.2 11.8 27.7 17.5 52.4 41.9 73 70 48.6 66.3 89.5 166.3 44.3 244.2z"/>
					<path id="&lt;Path&gt;" class="s3" d="m2932.7 771.9c-60.1 103.4-237 164.3-171.1 311.4 19.1 42.7 48.2 84.6 51.2 132.6 3 49.2-38.6 83.7-66.6 119-29.3 36.8-50.6 75.5-54 123.4-5 70.7 41.3 119.9 74.7 176.9 38.5 65.7 9.5 106.8-39.7 155.7-105.4 104.7-38.5 267.2-53.7 396-15.1 127.5-81.7 223.1-201.3 272.2-58.1 24-120.5 36.5-182.6 44-48 5.9-100.8 1.9-150.3 5.5 30.9-5.4 63.5-20.8 89.2-33.8 83.1-42.2 169-95.4 212.3-181.2 22.7-44.9 10-66.6-8.9-111.8-29-69.8-40.9-146.3-5.4-217.3 34.8-69.5 89.7-136.2 87.6-218.1-3.1-126-166.9-212.4-85.1-342.7 50-79.6 143.7-131.3 158.4-231.8 10-68.1-33-124.6-53.8-185.9-22.1-65.1-22.6-135.7-11.1-203.1 33.6-196.4 170.5-285.2 292.9-325.2 27.7 17.5 52.4 41.9 73 70 48.6 66.3 89.5 166.3 44.3 244.2z"/>
				</g>
				<g id="&lt;Group&gt;">
					<path id="&lt;Path&gt;" class="s0" d="m3060.2 1782.9c-97.9 41.1-176.1 80.1-154.8 202.9 34.4 197.6-74.4 318-197.6 370.5-119 50.9-416.9 120-555.8-4.4q-7.4-6.5-14.2-13.9c31.6-4.7 174.8 111.8 223.4-188.9 48.8-300.8 169-160.4 281.6-279.7 112.6-119.2-78.2-233-41.5-537.8 10-83.4 112-197.4 190.1-222.2 67.8-21.4 142.8-12.5 212 15.6 1.3 0.6 2.8 1.2 4.1 1.7 90.8 38.1 170.8 109.3 210.1 188.5 83.4 168.6 25.8 390.7-157.4 467.7z"/>
					<path id="&lt;Path&gt;" class="s4" d="m3060.2 1782.9c-97.9 41.1-176.1 80.1-154.8 202.9 34.4 197.6-74.4 318-197.6 370.5-119 50.9-416.9 120-555.8-4.4 59.1 20.8 130.6 35.6 191.8 28.5 87.3-10.2 168.2-76.2 218.3-145.6 41.4-57.3 67.7-124 108.5-181.8 28.3-40 71.2-66 99.9-105.4 27.9-38.3 45.9-84.5 61.5-129 19.5-55.7 24.8-114.1 21.4-172.8-9.5-160.7-96.4-370.6 71.4-479.2 25.6-16.5 53.7-29.6 82.7-39.9 90.8 38.1 170.8 109.3 210.1 188.5 83.4 168.6 25.8 390.7-157.4 467.7z"/>
				</g>
			</g>
			<g id="&lt;Group&gt;">
				<path id="&lt;Path&gt;" class="s5" d="m2880.6 1858.5c0 499.2-404.5 922.3-920.6 945.9-536.1 24.5-986-388.3-986-922.9 0-534.7 449.9-958.3 986-946.8 516.1 11.2 920.6 424.6 920.6 923.8z"/>
				<path id="&lt;Path&gt;" class="s6" d="m2940.5 1858.5c0 499.2-404.5 922.3-920.6 945.9-536 24.5-986-388.3-986-922.9 0-534.7 450-958.3 986-946.8 516.1 11.2 920.6 424.6 920.6 923.8z"/>
				<path id="&lt;Path&gt;" class="s7" d="m2883.5 1859.1c0 470.4-381.5 868.4-867.4 889.6-503.5 22-925.2-366.2-925.2-867.9 0-501.7 421.7-900.1 925.2-890.3 485.9 9.5 867.4 398.3 867.4 868.6z"/>
				<g id="&lt;Group&gt;" style="opacity: .5;mix-blend-mode: multiply">
					<path id="&lt;Path&gt;" class="s8" d="m1604.5 1468.2c-31.7-103.3-30.3-260.2 124.3-492-398.8 114.9-694.9 476.4-694.9 909 0 534.6 450 947.4 986 922.9 197.6-9 378.6-76.5 526.4-183.5-4.5-142.6-35.6-298.7-122.8-442.6-239.8-395.9-719.6-389.6-819-713.8z"/>
				</g>
				<g id="&lt;Clip Group&gt;" clip-path="url(#cp1)">
					<g id="&lt;Group&gt;">
						<path id="&lt;Path&gt;" class="s9" d="m2657.6 1353.3v2.9c-26.8-34.9-74.8-83.2-103.6-111.3-0.5-1.2-1.4-2.4-1.9-3.7-16.1-36.6-37.7-76.3-65.9-115.8-28.1-39.7-63.8-78.8-105.3-114.8-5-4.6-10.7-8.7-16.1-13.2-2.7-2.1-5.4-4.3-8.2-6.5l-4-3.3c-1.4-1-2.9-2-4.3-3.1q-8.6-6.2-17.2-12.5l-4.2-3.1-4.6-2.9q-4.4-3-8.9-5.9c-11.8-8.1-24.5-15.1-36.9-22.6-6.3-3.6-13-6.9-19.4-10.3-3.2-1.7-6.4-3.5-9.7-5.2-3.3-1.5-6.7-3.1-10-4.7-53.1-25.5-111-44-170.5-54.2-7.4-1.1-14.8-2.3-22.3-3.5-7.5-1-15.1-1.6-22.5-2.4l-11.2-1.2-11.3-0.6-11.3-0.7c-3.8-0.1-7.5-0.5-11.3-0.4-7.5-0.1-15-0.1-22.5-0.2-1.8 0-3.8-0.1-5.6 0l-5 0.3-10 0.5-10 0.5c-0.8 0-1.4 0-2.6 0.1l-10.2 0.7-13.7 0.9-10.2 0.7-1.7 0.1-0.6 0.1c0 0-3.6 0 2.4 0.1l-22.1 3.1c-3.6 0.5-7.3 0.9-11 1.6l-10.8 2.1-10.8 2-5.4 1.1c-1.8 0.3-3.6 0.8-5.3 1.2-7.1 1.7-14.2 3.4-21.2 5.1-3.6 0.8-7 1.9-10.5 2.9l-10.3 3.1-10.3 3-10.2 3.5c-6.7 2.4-13.4 4.5-20 7.1-6.5 2.6-13 5.2-19.5 7.9-51.5 21.8-97.7 49.9-137.1 82.1l-7.4 5.9-7.1 6.3c-4.7 4.2-9.5 8.2-13.9 12.4-0.2 0.2-0.4 0.4-0.6 0.5-8.6 8.6-17.4 16.6-25.1 25.4q-3.1 3.2-6.1 6.5l-3.1 3.2-2.8 3.5c-3.8 4.4-7.6 8.9-11.3 13.3-0.9 1.1-1.9 2.1-2.8 3.3l-2.6 3.4c-1.8 2.3-3.5 4.6-5.2 6.8-3.4 4.6-7.1 8.8-10.1 13.6-25.6 36.4-45 72.9-58.3 107.6-13.3 34.7-21.3 67.3-25.8 96q-0.8 5.4-1.5 10.7c-0.4 3.4-1.1 6.8-1.3 10.2q-0.9 10.2-1.7 19.4c-0.4 6.2-0.4 12.3-0.7 17.9-0.1 2.9-0.3 5.6-0.3 8.3q0.2 4.1 0.2 7.9 0.1 7.7 0.2 14.5c0 1.3 0.2 2 0.3 2.8q0.2 1.3 0.4 2.5c0.1 1.6 0.3 1.4 0.5 2.9 0.1 1.2 0.3 1.8 0.4 1.8h251.9l-153.1 161.6-355.9 370.6-509-532.2h267.6c0.4 0 0.8-4.4 1.3-7.8 1-7.4 2.1-14.6 3.3-23.4 0.7-4.4 1.3-8.5 2.1-13.2 0.3-2.3 0.7-4.5 1.1-6.9 0.3-2.3 0.7-4.9 1.1-7 1.9-8.8 3.9-18.1 5.9-28 1.2-4.9 2.2-9.9 3.4-15.1 1.2-5.2 2.7-10.4 4.1-15.8 2.9-10.8 5.7-22.1 9.3-33.7q5.6-17.3 11.6-36c2-6.3 4.6-12.4 6.9-18.8 2.4-6.3 4.9-12.7 7.5-19.3 20.7-51.9 49.1-108.5 87-165.3 37.8-56.9 85.9-113.6 143-166.1 6.9-6.8 14.6-12.9 22-19.4 3.7-3.1 7.5-6.4 11.2-9.6l5.7-4.8 5.8-4.6c7.9-6 15.8-12.2 23.7-18.4l5.9-4.6 6.2-4.3c4.2-3 8.4-5.9 12.5-8.8 16.4-11.9 33.9-22.7 51.4-33.8 8.8-5.4 17.9-10.4 27-15.6 4.4-2.5 9-5.1 13.6-7.7q7-3.6 14-7.2c74.4-38.9 156.7-68.4 242.2-86 10.6-2 21.4-4 32.1-6.1 10.7-1.8 21.6-3.2 32.4-4.7l16.3-2.2 16.3-1.5 16.3-1.5c5.4-0.5 10.8-1.1 16.3-1.3 10.9-0.5 21.8-1.7 32.7-2.2 2.7-0.1 5.4-1.1 8.1-1.1h8.2l16.3 0.9 16.3 0.5c5.4 0 10.8 0.7 16.2 1l32.4 1.8c7.3 0.1 2.5 0.2 4.4 0.3l0.8 0.1 1.7 0.1 3.4 0.5 6.8 0.8 13.6 1.6 6.8 0.8 3.4 0.4 4.1 0.5 17.2 2.4 17.1 2.5 8.5 1.3c2.8 0.4 5.3 1 8 1.5 10.4 2.1 20.9 4.3 31.3 6.4 5.2 1 10.4 2.4 15.5 3.6l15.4 3.9 15.3 3.9 15.1 4.6c10.1 3.1 20.1 6 30 9.4 9.8 3.5 19.6 7 29.3 10.5 77.5 29.3 148.1 68.4 208.8 113.9 3.9 2.8 7.7 5.6 11.5 8.4 3.7 3 7.3 5.9 10.9 8.9 7.3 5.9 14.6 11.6 21.6 17.6 13.8 12.4 27.6 24.2 40.2 37.1 3.2 3.1 6.4 6.3 9.6 9.4l4.7 4.6 4.5 4.9q9 9.7 17.8 19.3l4.4 4.8 4.2 5c2.7 3.3 5.5 6.5 8.2 9.8 5.5 6.6 11.2 12.9 16.1 19.7 27.7 35.7 51.2 71.8 70.7 107.5 9.5 17.3 17.9 34.5 25.4 51.5 23.1 52 37.9 101.5 47.2 145.5 1 5.6 2.2 11 3.2 16.3 1 5.4 2.2 10.6 2.8 15.8 1.5 10.4 2.9 20.3 4.3 29.9 1.1 9.6 1.7 18.9 2.6 27.7 0.3 4.3 0.8 8.6 1 12.8 0.2 4.2 1.1 8.3 1.3 12.3 0.2 7.9 1.6 15.5 1.6 22.6z"/>
						<path id="&lt;Path&gt;" class="s10" d="m2657.6 1353.3v2.9c-26.8-34.9-74.8-83.2-103.6-111.3-0.5-1.2-1.4-2.4-1.9-3.7-16.1-36.6-37.7-76.3-65.9-115.8-28.1-39.7-63.8-78.8-105.3-114.8-5-4.6-10.7-8.7-16.1-13.2-2.7-2.1-5.4-4.3-8.2-6.5l-4-3.3c-1.4-1-2.9-2-4.3-3.1q-8.6-6.2-17.2-12.5l-4.2-3.1-4.6-2.9q-4.4-3-8.9-5.9c-11.8-8.1-24.5-15.1-36.9-22.6-6.3-3.6-13-6.9-19.4-10.3-3.2-1.7-6.4-3.5-9.7-5.2-3.3-1.5-6.7-3.1-10-4.7-53.1-25.5-111-44-170.5-54.2-7.4-1.1-14.8-2.3-22.3-3.5-7.5-1-15.1-1.6-22.5-2.4l-11.2-1.2-11.3-0.6-11.3-0.7c-3.8-0.1-7.5-0.5-11.3-0.4-7.5-0.1-15-0.1-22.5-0.2-1.8 0-3.8-0.1-5.6 0l-5 0.3-10 0.5-10 0.5c-0.8 0-1.4 0-2.6 0.1l-10.2 0.7-13.7 0.9-10.2 0.7-1.7 0.1-0.6 0.1c0 0-3.6 0 2.4 0.1l-22.1 3.1c-3.6 0.5-7.3 0.9-11 1.6l-10.8 2.1-10.8 2-5.4 1.1c-1.8 0.3-3.6 0.8-5.3 1.2-7.1 1.7-14.2 3.4-21.2 5.1-3.6 0.8-7 1.9-10.5 2.9l-10.3 3.1-10.3 3-10.2 3.5c-6.7 2.4-13.4 4.5-20 7.1-6.5 2.6-13 5.2-19.5 7.9-51.5 21.8-97.7 49.9-137.1 82.1l-7.4 5.9-7.1 6.3c-4.7 4.2-9.5 8.2-13.9 12.4-0.2 0.2-0.4 0.4-0.6 0.5 113.1-133.3 296.4-219.9 503.1-219.9 211.9 0 399 90.9 511.3 229.8 9.5 17.3 17.9 34.5 25.4 51.5 23.1 52 37.9 101.5 47.2 145.5 1 5.6 2.2 11 3.2 16.3 1 5.4 2.2 10.6 2.8 15.8 1.5 10.4 2.9 20.3 4.3 29.9 1.1 9.6 1.7 18.9 2.6 27.7 0.3 4.3 0.8 8.6 1 12.8 0.2 4.2 1.1 8.3 1.3 12.3 0.2 7.9 1.6 15.5 1.6 22.6z"/>
					</g>
				</g>
				<g id="&lt;Group&gt;">
					<path id="&lt;Compound Path&gt;" fill-rule="evenodd" class="s11" d="m1988 1198.4c24.2 2.3 43.7 24.1 43.7 48.6v83.7q72.5 8.1 145.1 25.2 53.6 12.5 106.4 29.9c21.1 7 35.5 28.3 33.4 50.2l-10.3 105c-2.8 27.9-30.3 44.2-56.2 32.7q-34.8-15.6-71.4-26.6-63.8-19.3-134.6-25.2l-12.4-1v239.7c126 35.3 218.5 82.7 278.3 142.3 59.5 59.4 89.2 133.3 89.2 222.1 0 96.1-32.8 173-98.6 231-66.2 58.3-158.9 91.1-278.9 98.2v92.4c0 24.5-19.6 43.6-43.7 42.6h-0.8c-24.2-0.9-43.9-21.7-43.9-46.3v-91.1l-19.5-0.9q-84.3-3.8-161.5-17.2-57.2-10-111.7-25.7c-21.9-6.4-37-27.3-35-49.8l12.1-134.9c2.6-29.2 31.9-46.1 59.6-35.2q48.5 19.1 98.2 32.2 77.5 20.4 157 26.3l0.8-266.7c-120.9-29.9-211.5-74.2-270.9-132.9-59.8-59-89.8-134.5-89.8-226.3 0-95 32.5-168.3 97.3-219.7 64.5-51.2 156.1-76.7 274.3-76.6v-85.6c0-24.6 19.6-42.7 43.8-40.4zm-43.8 320q-56.1 4.1-87.4 30.8-31.3 26.8-31.3 72 0 42.8 29 71.5c19.3 19.1 49.2 34.4 89.7 45.8zm77.5 482.8v244.6c40.6 0 71.8-9.7 93.5-29.1q32.6-29.1 32.6-82.3 0-48.5-30.3-80.5c-20.2-21.4-52.1-38.9-95.8-52.7z"/>
				</g>
			</g>
			<g id="&lt;Group&gt;">
				<path id="&lt;Path&gt;" class="s12" d="m2140.7 3088.2c1.8 24.2-13.6 45.2-34.4 46.6l-1432.3 96.7c-26.5 1.7-57.9-21.6-59.3-49.2l-52.6-1004.3c-1.4-26.8 27.7-49.9 53.9-49.3l1414.5 5c20.5 0.4 38.8 20 40.6 43.6z"/>
				<path id="&lt;Path&gt;" class="s13" d="m2168.1 3089.7c1.8 24.4-13.7 45.5-34.6 46.8l-1448.6 95.1c-26.7 1.8-49.8-19.5-51.3-47.3l-53.1-1009.5c-1.5-26.9 19.1-48.4 45.5-47.8l1430.9 3.4c20.7 0.4 39 20.1 40.8 43.8z"/>
				<g id="&lt;Group&gt;" style="opacity: .7">
					<path id="&lt;Path&gt;" class="s14" d="m1080.1 2882.8l-249.5 7.8c-11.3 0.4-21.7-8.3-23.1-19.3l-7.6-60.1c-1.4-11 6.8-20.2 18.1-20.5l249.9-5.8c10.8-0.2 20.7 8.3 22.1 19.1l7.3 58.7c1.3 10.7-6.4 19.7-17.2 20.1z"/>
					<path id="&lt;Path&gt;" class="s14" d="m1397.8 2872.7l-235.9 7.5c-10.7 0.3-20.5-8.1-21.9-18.8l-7.2-58.5c-1.4-10.7 6.3-19.6 17-19.9l236.2-5.4c10.2-0.3 19.7 8.1 20.9 18.5l7.1 57.1c1.3 10.4-6 19.2-16.2 19.5z"/>
					<path id="&lt;Path&gt;" class="s14" d="m1698.4 2863.2l-223.2 7.1c-10.2 0.3-19.5-7.9-20.8-18.3l-7-56.9c-1.3-10.4 6-19.1 16.1-19.3l223.6-5.2c9.7-0.2 18.6 7.9 19.9 18.1l6.8 55.5c1.2 10.2-5.7 18.7-15.4 19z"/>
					<path id="&lt;Path&gt;" class="s14" d="m1983.5 2854.2l-211.7 6.7c-9.6 0.3-18.5-7.7-19.7-17.8l-6.8-55.4c-1.2-10.1 5.6-18.6 15.2-18.8l212-4.9c9.2-0.2 17.7 7.7 18.9 17.6l6.6 54.1c1.2 9.9-5.3 18.2-14.5 18.5z"/>
				</g>
				<g id="&lt;Group&gt;">
					<path id="&lt;Path&gt;" class="s15" d="m947.1 2642.4l-118.9 2.3c-21.9 0.4-40.8-17.8-42.1-40.5l-6.8-123.6c-1.3-22.7 15.6-41.2 37.3-41.3l118.7-0.3c21.3-0.1 39.7 18.1 41 40.3l7.1 121.7c1.3 22.3-15 41-36.3 41.4z"/>
					<path id="&lt;Compound Path&gt;" fill-rule="evenodd" class="s16" d="m938.1 2630.8l-102.2 1.9c-20.1 0.3-37.5-16.4-38.7-37.4l-5.9-106.1c-1.1-20.9 14.3-38 34.4-38.1l102-0.4c19.7-0.1 36.7 16.6 37.9 37.3l6.1 104.6c1.2 20.7-13.9 37.8-33.6 38.2zm-112.1-174.4c-17.3 0-30.6 14.7-29.6 32.7l5.9 106.1c1 18.1 16 32.5 33.3 32.2l102.2-1.9c17-0.3 30-15 28.9-32.9l-6.1-104.6c-1-17.8-15.6-32.2-32.6-32.1z"/>
					<g id="&lt;Group&gt;">
						<g id="&lt;Group&gt;">
							<path id="&lt;Path&gt;" class="s14" d="m794.6 2502.3l169.3-1.4z"/>
							<path id="&lt;Path&gt;" class="s17" d="m964 2503.5l-169.3 1.4-0.3-5.3 169.3-1.3z"/>
						</g>
						<g id="&lt;Group&gt;">
							<path id="&lt;Path&gt;" class="s14" d="m796.8 2542.1l169.4-1.9z"/>
							<path id="&lt;Path&gt;" class="s18" d="m966.3 2542.8l-169.3 2-0.3-5.3 169.3-1.9z"/>
						</g>
						<g id="&lt;Group&gt;">
							<path id="&lt;Path&gt;" class="s14" d="m799 2582.1l169.5-2.5z"/>
							<path id="&lt;Path&gt;" class="s19" d="m968.6 2582.2l-169.4 2.5-0.3-5.3 169.4-2.4z"/>
						</g>
					</g>
					<g id="&lt;Group&gt;">
						<path id="&lt;Path&gt;" class="s20" d="m909.6 2609.7l-47.3 0.7c-12.1 0.3-22.6-9.9-23.3-22.5l-5.2-92.3c-0.7-12.6 8.6-22.9 20.7-23l47.2-0.3c12 0 22.3 10.1 23.1 22.6l5.2 91.6c0.8 12.6-8.4 23-20.4 23.2z"/>
						<path id="&lt;Compound Path&gt;" fill-rule="evenodd" class="s21" d="m909.8 2612.3l-47.4 0.8c-13.5 0.2-25.1-11.1-25.9-25.2l-5.2-92.3c-0.8-14.1 9.5-25.5 23-25.6l47.3-0.3c13.3 0 24.8 11.2 25.6 25.2l5.3 91.6c0.8 14-9.4 25.5-22.7 25.8zm-55.2-137.1c-10.7 0.1-18.9 9.2-18.3 20.3l5.2 92.4c0.7 11.1 9.9 20.1 20.6 19.9l47.4-0.8c10.6-0.1 18.7-9.3 18-20.4l-5.2-91.7c-0.7-11.1-9.8-20-20.4-20z"/>
					</g>
				</g>
				<path id="&lt;Path&gt;" class="s22" d="m1177.3 2948.6c-123.1 21.2-202.9 26-295.7-1-128.9-37.7-219.1-118-269.5-171.5l21.5 408.2c1.5 27.8 24.6 49.1 51.3 47.3l1448.6-95.1c20.9-1.3 36.4-22.4 34.6-46.8l-11.2-147c-210.4-130.1-371.9-141.2-483.5-125.2-137 19.7-210.8 81.9-496.1 131.1z"/>
				<g id="&lt;Group&gt;" style="opacity: .4;mix-blend-mode: multiply">
					<path id="&lt;Path&gt;" class="s23" d="m1165.3 3068.1l-341.2 18.7c-6.6 0.4-12.4-5-12.7-12l-3.2-57.1c-0.4-7 4.7-12.9 11.3-13.2l340.9-16.4c6.3-0.3 11.7 4.9 12.1 11.6l3.4 55.5c0.4 6.8-4.4 12.6-10.6 12.9z"/>
					<path id="&lt;Path&gt;" class="s24" d="m1784.4 3035.8l-424 23.2c-6.2 0.3-11.6-4.9-12-11.6l-3.5-55.2c-0.5-6.7 4.3-12.4 10.4-12.7l423.7-20.5c5.7-0.2 10.8 4.8 11.3 11.3l3.7 53.2c0.5 6.4-3.9 12-9.6 12.3z"/>
				</g>
				<path id="&lt;Path&gt;" class="s25" d="m1980.5 2383.9c4.7 63.4-42.7 115.7-105.8 116.6-62.9 0.9-117.5-49.7-121.9-112.9-4.5-63 42.7-115 105.4-116.1 62.8-1.2 117.6 49.1 122.3 112.4z"/>
				<g id="&lt;Group&gt;" style="opacity: .5">
					<path id="&lt;Path&gt;" class="s14" d="m1055 2549.6c-7.3 7.7-19.9 8-28.2 0.5-8.4-7.5-9.1-19.9-1.7-27.7 7.4-7.7 20-7.7 28.2-0.2 8.1 7.4 8.9 19.7 1.7 27.4z"/>
					<g id="&lt;Group&gt;">
						<path id="&lt;Path&gt;" class="s14" d="m1121.6 2624.8c-1.9 0.1-3.8-0.5-5.3-1.9-3-2.7-3.3-7.4-0.6-10.4 39.3-43.9 35.1-112.4-9.5-154.9-3-2.9-3.3-7.5-0.7-10.3 2.7-2.8 7.3-2.7 10.3 0.2 50.1 48.1 54.9 125.2 10.8 174.9-1.3 1.5-3.1 2.3-5 2.4z"/>
						<path id="&lt;Path&gt;" class="s14" d="m1099.6 2605c-1.8 0-3.8-0.6-5.3-2-3.1-2.8-3.4-7.4-0.6-10.4 29.4-32.4 26.3-83.2-7-114.5-3.1-2.9-3.4-7.5-0.7-10.4 2.7-2.8 7.4-2.8 10.5 0.1 39 37 42.7 96.6 8.2 134.8-1.3 1.5-3.2 2.3-5.1 2.4z"/>
						<path id="&lt;Path&gt;" class="s14" d="m1077.4 2584.8c-1.9 0.1-3.9-0.6-5.5-2-3.1-2.8-3.4-7.5-0.6-10.5 19.1-20.6 17.1-53.3-4.5-73.4-3.1-2.8-3.4-7.5-0.6-10.4 2.8-2.9 7.5-2.9 10.6 0 13.4 12.5 21.3 29 22.4 46.7 1 17.6-4.8 34.4-16.7 47.3-1.3 1.5-3.2 2.3-5.1 2.3z"/>
					</g>
				</g>
			</g>
			<g id="&lt;Group&gt;">
				<path id="&lt;Path&gt;" class="s26" d="m3241.5 2005.8c-2.8-62.8-42.8-103.1-52.8-112.8-59.5-58.2-143.6-56-170.6-55.2-95.5 2.5-117 49.9-183.7 32.3-56.4-15-60.7-54.2-109.3-56.8-50.8-2.8-104 36.9-125.3 82-41.1 86.9 23 222.4 114.5 263.3 95.1 42.5 146.5-49.8 320.8-22.6 63.6 10 100.9 29.2 142.1 5.9 45.1-25.5 66.6-85.9 64.3-136.1z"/>
				<path id="&lt;Path&gt;" class="s27" d="m2458.1 1662.2c-50.9 84.1-51.2 181.9-3.4 239.6 23.1 27.8 74.6 67.1 134.7 68.1 28.7 0.4 42.9-8.1 53 1.3 25.7 24-6 134.6-66.4 157.5-78.6 29.9-229-79.7-252.4-219.7-22.3-133.1 80-236.3 92.9-249q20.8 1.1 41.6 2.2z"/>
				<path id="&lt;Path&gt;" class="s28" d="m2582.1 3221.2c0 0 5 4.8 5 13.2 0 2.5-1.2 4.9-3.2 6.5-4.5 3.5-14.4 10.3-29.8 16.6-21.8 8.8-29.1 8-30 4.4-0.9-3.7 10.4-13.5 20-22 9.6-8.5 38-18.7 38-18.7z"/>
				<path id="&lt;Path&gt;" class="s29" d="m2589.3 3187.5c0 0-7.1 32.8-6.7 44.9 0 0-8.7 7.6-21-0.2 0 0 6.6-30 3.6-42.5z"/>
				<path id="&lt;Path&gt;" class="s30" d="m2825 3234.6c0 0 5.7 4 6.8 12.4 0.3 2.5-0.5 5-2.3 6.8-4 4.1-12.8 12.2-27.2 20.6-20.4 11.7-27.7 11.9-29.1 8.4-1.4-3.4 8.4-14.7 16.8-24.5 8.3-9.8 35-23.7 35-23.7z"/>
				<path id="&lt;Path&gt;" class="s31" d="m2835.5 3204.3c0 0-7.2 32.9-6.7 44.9 0 0-8.7 7.6-21-0.2 0 0 6.5-30 3.5-42.5z"/>
				<path id="&lt;Path&gt;" class="s32" d="m2509.6 2499.7c-2.9 98.8-2.5 204.7 3.1 316.9 6.9 140.3 20.7 270.3 38.1 388.7 6.6 1.9 15.7 3.7 26.5 3.7 7.6-0.1 14.3-1 19.6-2.2 3.1-13.9 8-35.1 14.4-60.9 11.5-46.7 14.2-53 17.8-69 15-66.6-3.8-85.6 6-154.4 2.1-15 2.9-13.7 23.7-86.2 26-90.3 39.1-135.5 45.3-170.1 16.6-92.9 24.9-139.4-0.9-168.3-33.7-37.7-112.8-32.6-193.6 1.8z"/>
				<path id="&lt;Path&gt;" class="s33" d="m2573.2 3149c11.1-30.5-7.7-46.3-7.2-99.1 0.5-45.6 14.6-51.2 19.3-102.4 4.3-47-6-60.5-8.3-103.8-4.4-81.7 28.1-108.8 34.8-171.4 4.7-43.1-2.6-105.8-59.3-188.1 64.7-19.3 123-17.3 150.7 13.7 25.8 28.9 17.5 75.4 0.9 168.3-6.2 34.6-19.3 79.8-45.3 170.1-20.8 72.5-21.6 71.2-23.7 86.2-9.8 68.8 9 87.8-6 154.4-3.6 16-6.3 22.3-17.8 69-6.4 25.8-11.3 47-14.4 60.9-5.3 1.2-12 2.1-19.6 2.2-10.8 0-19.9-1.8-26.5-3.7q-1.6-10.9-3.1-21.9c11-8.9 20.4-20.2 25.5-34.4z"/>
				<path id="&lt;Path&gt;" class="s34" d="m2615.7 2493.7c38.7 107.9 76.3 227.8 109.6 358.9 32.3 127.5 55.9 247.6 73.2 358.2 5.2 2.5 14.9 6.2 27.6 6 10.9-0.1 19.4-3 24.3-5.2 13.1-32.3 26.7-74.3 35.1-124.6 5.3-32.3 11.1-67.4 7.2-112.7-5.2-60.2-21.6-69.8-28.8-129.3-5.4-44.5 2.1-53.2 4.4-117.5 3.6-99.7 5.5-151.2-19.1-186.8-52.9-76.7-207.9-51.4-233.5-47z"/>
				<path id="&lt;Path&gt;" class="s35" d="m2483.2 2509.2c11.7-65.7 2.2-62.4 13.1-138.3 14.3-99.4 32.1-115.9 40.6-185.6 5-41.3 7.1-103.3-11.8-182.4 21.4-12.2 95.4-50.6 193.3-35.2 12.4 1.9 59.3 9 85.7 9 60.2 0.1 112.3-38.3 135.9-65.7 48.8-56.9 50.2-154.6 0.7-239.7q20.8-0.7 41.6-1.4c9 9.2 127 133.2 88.7 250.5-21.7 66.6-89.3 117.8-94 121.2-43.4 32.2-69.3 30.3-112.9 74.4-12.3 12.4-29.2 31.7-39.7 35.5-40.2 70.1-39.7 112.9-26.6 140.2 13.2 27.6 37.9 37 64.1 91.3 26 53.9 15 72.1 38.4 95.8 42.2 42.5 106.5 12.8 120.4 41.9 13.6 28.6-34.9 85.8-84.1 114.3-38.9 22.6-76.4 26.2-102.8 28.5-48 4.1-55.8-6.2-136.3-13-60.3-5.1-94.3-8-139.8-1.6-62.8 8.9-82.8 26.5-97.8 13.8-19.8-16.6 6.6-58.9 23.3-153.5z"/>
				<g id="&lt;Group&gt;">
					<path id="&lt;Path&gt;" class="s36" d="m2710.7 1906.4c-3.1 8.4-7.3 26.9 1.6 43.7 4.8 9.2 15.3 12.9 24.6 15.7 6 1.8 12 3.8 18.2 5.1 1.5 0.3 8.3 0.7 8.6 2.9 0.8 6-39.9 32.4-81.8 23.7-24.6-5.2-47.8-19.5-46.2-27.4 1.8-8.9 29.8-4.8 40.9-21.9 7-11 6.2-24.4 0.6-37 8.2-6.8 25.3 2 33.5-4.8z"/>
					<g id="&lt;Group&gt;">
						<path id="&lt;Path&gt;" class="s37" d="m2705.8 1934.3c0 0-18.6 13.4-38 1.8-17.4-10.4 0.7-56.6 16.5-60.3 5.3-1.3 13.6 1.2 18.9 6.3 3.2 3 3.6 5.4 8.9 10.1 4.9 4.5 6.8 4.6 7.7 7 1.2 3 0.5 8.7-9 20 5.2-2.1 10-1.5 12.2 1.5 0.4 0.5 1.2 2 1.2 3.8 0.2 6.4-7.1 10.9-18.4 9.8z"/>
					</g>
				</g>
				<g id="&lt;Group&gt;" style="opacity: .2;mix-blend-mode: multiply">
					<path id="&lt;Path&gt;" class="s38" d="m2794 2564.9c-34.8-70.2-123.2-77.1-127.2-133.1-2.9-40.9 43.8-46.5 62.3-105.4 27.9-88.7-55.7-145.7-26.1-206.7 20.2-41.6 64.1-25.1 166.1-78.5 47.7-24.9 123.3-64.5 166.7-143.6 17.7-32.2 26.6-64.6 30.7-93.7 12.5 36.5 17.4 76.9 4.5 116.5-21.7 66.6-89.3 117.8-94 121.2-43.4 32.2-69.3 30.3-112.9 74.4-12.3 12.4-29.2 31.7-39.7 35.5-40.2 70.1-39.7 112.9-26.6 140.2 13.2 27.6 37.9 37 64.1 91.3 26 53.9 15 72.1 38.4 95.8 42.2 42.5 106.5 12.8 120.4 41.9 13.6 28.6-34.9 85.8-84.1 114.3-38.9 22.6-76.4 26.2-102.8 28.5-12.2 1-21.7 1.1-30.5 0.6 8.7-44.6 2.1-76.2-9.3-99.2z"/>
				</g>
				<path id="&lt;Path&gt;" class="s39" d="m2961.1 1670.7c-1.1 0.1-10.8-21.7 0.3-31.9 11.1-10.2 46.2-27.8 50.3-32.9 4.1-5.2-7 32-23.2 41.5-16.3 9.5-16.4 22.9-16.4 22.9z"/>
				<path id="&lt;Path&gt;" class="s40" d="m2445.9 1661.8c0 0 5.2-13.4-4.4-23.3-9.6-9.8-32.5-12.1-35.7-30.2-3.3-18.2-12.8 16.8-2 26.5 10.8 9.7 26.1 26.1 26.1 26.1z"/>
			</g>
		</g>
	</g>
</svg>