<svg width="186" height="631" viewBox="0 0 186 631" fill="none" xmlns="http://www.w3.org/2000/svg">
<g opacity="0.84">
<path d="M47.1882 630.428C72.6848 630.428 93.354 609.752 93.354 584.247C93.354 558.742 72.6848 538.066 47.1882 538.066C21.6916 538.066 1.02246 558.742 1.02246 584.247C1.02246 609.752 21.6916 630.428 47.1882 630.428Z" fill="#F4BC1D"/>
<path d="M47.1876 538.437C59.3842 538.437 71.0848 543.267 79.7316 551.872C88.3783 560.476 93.2679 572.155 93.3315 584.356C93.3315 584.356 93.3315 584.225 93.3315 584.181C93.3315 571.933 88.4676 560.187 79.8099 551.526C71.1521 542.865 59.4097 538 47.1657 538C34.9218 538 23.1794 542.865 14.5216 551.526C5.86387 560.187 1 571.933 1 584.181C1 584.181 1 584.29 1 584.356C1.06359 572.148 5.95922 560.462 14.6154 551.856C23.2717 543.251 34.9835 538.426 47.1876 538.437Z" fill="#F7E133"/>
<path d="M47.187 620.785C67.07 620.785 83.1884 604.543 83.1884 584.509C83.1884 564.475 67.07 548.233 47.187 548.233C27.3039 548.233 11.1855 564.475 11.1855 584.509C11.1855 604.543 27.3039 620.785 47.187 620.785Z" fill="#F6E145"/>
<path d="M82.2306 592.537C86.7709 573.173 74.759 553.794 55.4013 549.252C36.0436 544.71 16.6704 556.726 12.1301 576.09C7.58982 595.454 19.6017 614.834 38.9594 619.376C58.3171 623.917 77.6903 611.901 82.2306 592.537Z" fill="#EAAC17"/>
<path d="M50.3571 580.507V572.133C51.732 572.652 53.0563 573.296 54.3136 574.057C55.0388 574.52 55.8795 574.77 56.7399 574.778C57.3433 574.787 57.9424 574.675 58.5018 574.449C59.0613 574.223 59.5698 573.887 59.9976 573.461C60.4253 573.035 60.7635 572.528 60.9924 571.969C61.2213 571.411 61.3362 570.812 61.3303 570.208C61.34 569.398 61.1244 568.601 60.7076 567.906C60.2907 567.211 59.689 566.645 58.9695 566.273C56.4216 564.628 53.5657 563.519 50.5757 563.015V562.905C50.5757 561.879 50.1681 560.894 49.4425 560.169C48.717 559.443 47.7329 559.035 46.7067 559.035C45.6806 559.035 44.6965 559.443 43.9709 560.169C43.2454 560.894 42.8377 561.879 42.8377 562.905C35.4713 563.933 30.6187 568.787 30.6187 575.281C30.6187 583.503 36.4768 586.499 43.0782 588.401V597.147C40.7101 596.454 38.488 595.335 36.5205 593.846C36.0198 593.507 35.4568 593.271 34.8644 593.152C34.2719 593.033 33.6616 593.032 33.069 593.151C32.4763 593.269 31.913 593.504 31.4117 593.841C30.9104 594.179 30.481 594.613 30.1484 595.118C29.8158 595.622 29.5867 596.188 29.4743 596.782C29.3619 597.376 29.3684 597.986 29.4934 598.578C29.6185 599.169 29.8596 599.73 30.2029 600.228C30.5461 600.725 30.9846 601.15 31.493 601.477C34.8917 603.897 38.8183 605.471 42.947 606.069V608.496C42.947 609.522 43.3547 610.507 44.0802 611.232C44.8058 611.958 45.7899 612.366 46.816 612.366C47.8422 612.366 48.8263 611.958 49.5518 611.232C50.2774 610.507 50.685 609.522 50.685 608.496V606.178C58.2482 605.041 63.079 600.208 63.079 593.605C63.079 587.001 59.0569 582.913 50.3571 580.507ZM53.4174 593.999C53.4006 594.846 53.084 595.661 52.5238 596.297C51.9635 596.934 51.1958 597.351 50.3571 597.475V590.369C53.1551 591.528 53.4174 592.73 53.4174 593.999ZM40.171 574.888C40.1836 574.081 40.4833 573.306 41.0162 572.701C41.549 572.096 42.2801 571.7 43.0782 571.586V578.386C40.4114 577.249 40.171 576.178 40.171 574.888Z" fill="#FAEF41"/>
<path d="M50.357 580.398V572.067C51.7319 572.587 53.0562 573.231 54.3135 573.992C55.0446 574.439 55.8829 574.681 56.7398 574.691C57.3403 574.703 57.9371 574.594 58.495 574.372C59.0529 574.149 59.5606 573.817 59.9884 573.396C60.4161 572.974 60.7552 572.471 60.9856 571.916C61.216 571.361 61.3332 570.766 61.3302 570.165C61.3399 569.355 61.1243 568.557 60.7075 567.862C60.2906 567.167 59.6889 566.602 58.9694 566.229C56.4157 564.6 53.5616 563.5 50.5756 562.993C50.5756 561.967 50.168 560.982 49.4424 560.256C48.7169 559.531 47.7328 559.123 46.7066 559.123C45.6805 559.123 44.6964 559.531 43.9708 560.256C43.2453 560.982 42.8376 561.967 42.8376 562.993C35.4712 564.021 30.6186 568.853 30.6186 575.304C30.6186 583.481 36.4767 586.477 43.0781 588.314V597.06C40.7153 596.374 38.4944 595.271 36.5204 593.802C35.7301 593.195 34.7625 592.865 33.7662 592.862C32.779 592.872 31.8216 593.202 31.0374 593.802C30.2532 594.401 29.6844 595.239 29.4161 596.19C29.1478 597.14 29.1945 598.152 29.5492 599.074C29.9039 599.995 30.5475 600.777 31.3836 601.302C34.8183 603.723 38.784 605.283 42.9469 605.85V608.277C42.9469 609.304 43.3545 610.288 44.0801 611.014C44.8057 611.74 45.7898 612.148 46.8159 612.148C47.842 612.148 48.8261 611.74 49.5517 611.014C50.2773 610.288 50.6849 609.304 50.6849 608.277V605.981C58.2481 604.844 63.0789 600.034 63.0789 593.452C63.0789 586.871 59.0568 582.804 50.357 580.398ZM53.4173 593.846C53.399 594.689 53.0809 595.498 52.5199 596.127C51.959 596.756 51.1921 597.165 50.357 597.279V590.216C53.155 591.375 53.4173 592.512 53.4173 593.846ZM40.1709 574.823C40.1835 574.016 40.4832 573.241 41.016 572.636C41.5489 572.03 42.28 571.635 43.0781 571.521V578.299C40.4113 577.162 40.1709 576.113 40.1709 574.823Z" fill="#F3D22F"/>
<path d="M45.4267 618.935V555.299H49.5034V618.935H45.4267ZM59.1483 574.39C58.85 571.871 57.6402 569.915 55.519 568.523C53.3978 567.131 50.796 566.435 47.7136 566.435C45.4598 566.435 43.4877 566.8 41.7974 567.529C40.1236 568.258 38.8145 569.261 37.8699 570.537C36.9418 571.813 36.4778 573.263 36.4778 574.887C36.4778 576.246 36.801 577.414 37.4473 578.392C38.1101 579.353 38.9553 580.157 39.9828 580.803C41.0102 581.433 42.0874 581.955 43.2143 582.369C44.3412 582.767 45.377 583.09 46.3216 583.339L51.492 584.731C52.8178 585.079 54.2927 585.559 55.9167 586.172C57.5574 586.786 59.1234 587.622 60.6149 588.683C62.1229 589.727 63.3658 591.069 64.3436 592.71C65.3213 594.351 65.8102 596.364 65.8102 598.751C65.8102 601.501 65.0893 603.987 63.6476 606.208C62.2224 608.429 60.1343 610.193 57.3833 611.503C54.649 612.812 51.3263 613.466 47.4153 613.466C43.7695 613.466 40.6125 612.878 37.9444 611.702C35.2929 610.525 33.2048 608.884 31.6802 606.78C30.1722 604.675 29.3187 602.231 29.1199 599.447H35.4835C35.6492 601.369 36.2955 602.96 37.4224 604.219C38.5659 605.462 40.0076 606.39 41.7477 607.003C43.5043 607.6 45.3935 607.898 47.4153 607.898C49.7685 607.898 51.8815 607.517 53.7541 606.755C55.6267 605.976 57.1099 604.899 58.2037 603.523C59.2974 602.131 59.8443 600.507 59.8443 598.651C59.8443 596.961 59.372 595.585 58.4274 594.525C57.4828 593.464 56.2399 592.602 54.6987 591.939C53.1575 591.277 51.492 590.697 49.7022 590.199L43.438 588.41C39.4608 587.266 36.3121 585.634 33.992 583.513C31.6719 581.391 30.5119 578.616 30.5119 575.185C30.5119 572.335 31.2825 569.849 32.8237 567.728C34.3815 565.59 36.4695 563.933 39.0879 562.756C41.7228 561.563 44.6644 560.966 47.9125 560.966C51.1937 560.966 54.1104 561.555 56.6625 562.731C59.2145 563.891 61.2363 565.482 62.7278 567.504C64.2359 569.526 65.0313 571.821 65.1142 574.39H59.1483Z" fill="#E27017"/>
<path opacity="0.27" d="M88.0636 562.84C86.4466 559.713 84.4814 556.779 82.2054 554.094L17.1318 619.276C19.8149 621.561 22.7481 623.534 25.8753 625.158L88.0636 562.84Z" fill="#F6E145"/>
<path opacity="0.27" d="M57.8978 539.356L2.28906 594.917C3.93248 601.813 7.14958 608.234 11.6883 613.678L76.6745 548.671C71.2174 544.159 64.7911 540.971 57.8978 539.356Z" fill="#F6E145"/>
<path opacity="0.27" d="M90.6868 568.853L31.7773 627.716C33.3006 628.267 34.8554 628.727 36.4333 629.093L92.0639 573.445C91.6951 571.888 91.2352 570.355 90.6868 568.853Z" fill="#F6E145"/>
<path d="M43.175 27.7933C45.6157 17.3264 39.1119 6.86216 28.6485 4.42066C18.1851 1.97917 7.72422 8.48502 5.28352 18.9519C2.84283 29.4187 9.34655 39.883 19.81 42.3245C30.2734 44.766 40.7343 38.2602 43.175 27.7933Z" fill="#F4BC1D"/>
<path d="M24.2436 4.0793C29.386 4.07927 34.3188 6.11827 37.9613 9.74958C41.6037 13.3809 43.6587 18.3084 43.676 23.4525C43.7635 20.8435 43.3253 18.2435 42.3876 15.8073C41.4498 13.3712 40.0317 11.1487 38.2175 9.27207C36.4034 7.39547 34.2304 5.90318 31.8278 4.884C29.4253 3.86482 26.8423 3.3396 24.2326 3.3396C21.623 3.3396 19.04 3.86482 16.6374 4.884C14.2349 5.90318 12.0619 7.39547 10.2477 9.27207C8.43361 11.1487 7.01547 13.3712 6.07772 15.8073C5.13997 18.2435 4.70179 20.8435 4.78925 23.4525C4.81237 18.3064 6.87222 13.3789 10.5181 9.74824C14.164 6.11755 19.0991 4.07924 24.2436 4.0793Z" fill="#F7E133"/>
<path d="M24.2432 38.7805C32.6214 38.7805 39.4132 31.9375 39.4132 23.4962C39.4132 15.0549 32.6214 8.21191 24.2432 8.21191C15.8651 8.21191 9.07324 15.0549 9.07324 23.4962C9.07324 31.9375 15.8651 38.7805 24.2432 38.7805Z" fill="#F6E145"/>
<path d="M39.4132 23.3869C39.4132 26.3882 38.5235 29.3221 36.8566 31.8176C35.1897 34.3131 32.8205 36.2582 30.0485 37.4067C27.2766 38.5553 24.2264 38.8558 21.2837 38.2703C18.341 37.6847 15.638 36.2394 13.5164 34.1172C11.3949 31.9949 9.95007 29.291 9.36474 26.3474C8.7794 23.4037 9.07981 20.3525 10.228 17.5797C11.3762 14.8068 13.3206 12.4368 15.8152 10.7694C18.3099 9.10191 21.2429 8.21191 24.2432 8.21191C28.2666 8.21191 32.1251 9.8107 34.9701 12.6566C37.815 15.5024 39.4132 19.3622 39.4132 23.3869Z" fill="#EAAC17"/>
<path d="M25.5768 21.8124V18.2702C26.1533 18.4902 26.7092 18.761 27.238 19.0792C27.5418 19.2824 27.8999 19.3891 28.2654 19.3853C28.6807 19.3802 29.0829 19.2391 29.4106 18.9838C29.7382 18.7284 29.9733 18.3728 30.0799 17.9712C30.1864 17.5696 30.1586 17.1441 30.0007 16.7599C29.8428 16.3756 29.5634 16.0536 29.2053 15.843C28.1268 15.1601 26.923 14.6992 25.6642 14.4874C25.6671 14.273 25.6274 14.0603 25.5474 13.8614C25.4674 13.6626 25.3487 13.4816 25.1982 13.329C25.0477 13.1765 24.8684 13.0553 24.6707 12.9726C24.473 12.89 24.2609 12.8474 24.0466 12.8474C23.6118 12.8474 23.1949 13.0202 22.8874 13.3277C22.58 13.6353 22.4072 14.0524 22.4072 14.4874C21.0507 14.547 19.7665 15.1157 18.8104 16.0802C17.8544 17.0447 17.2967 18.3341 17.2486 19.6915C17.2486 23.1681 19.7186 24.4364 22.4947 25.2017V28.9189C21.5139 28.6205 20.5954 28.1464 19.7842 27.5195C19.4504 27.267 19.0441 27.129 18.6257 27.1259C18.3741 27.1259 18.125 27.1758 17.8928 27.2727C17.6607 27.3697 17.45 27.5118 17.2732 27.6908C17.0963 27.8697 16.9567 28.082 16.8624 28.3154C16.7681 28.5487 16.7211 28.7984 16.7239 29.0501C16.718 29.3808 16.7973 29.7074 16.9543 29.9985C17.1113 30.2896 17.3406 30.5353 17.6202 30.7119C19.0419 31.7259 20.6814 32.3925 22.4072 32.658V33.6856C22.4129 34.1188 22.5874 34.5327 22.8937 34.839C23.1999 35.1453 23.6136 35.3199 24.0466 35.3256C24.4776 35.3198 24.889 35.1445 25.1918 34.8376C25.4945 34.5307 25.6642 34.1168 25.6642 33.6856V32.7235C27.0437 32.6582 28.3477 32.0748 29.3161 31.0899C30.2845 30.1049 30.846 28.7909 30.8884 27.4101C30.8884 24.5894 29.249 22.8183 25.5768 21.8124ZM26.8664 27.4976C26.8556 27.8538 26.7208 28.195 26.4854 28.4624C26.2499 28.7299 25.9286 28.9068 25.5768 28.9626V25.967C26.7571 26.448 26.8664 26.9291 26.8664 27.4976ZM21.2706 19.4291C21.277 19.0889 21.4033 18.7619 21.6273 18.5058C21.8512 18.2498 22.1585 18.0811 22.4947 18.0296V20.8941C21.3799 20.4349 21.2706 19.9757 21.2706 19.4291Z" fill="#FAEF41"/>
<path d="M25.5766 21.769V18.2485C26.1531 18.4686 26.7091 18.7394 27.2378 19.0576C27.5463 19.2507 27.9014 19.3565 28.2652 19.3637C28.5196 19.3666 28.7721 19.319 29.008 19.2236C29.2439 19.1282 29.4586 18.9869 29.6395 18.8079C29.8205 18.6289 29.9641 18.4158 30.0621 18.1809C30.1602 17.9461 30.2106 17.694 30.2106 17.4395C30.203 17.1073 30.1055 16.7835 29.9284 16.5024C29.7514 16.2213 29.5014 15.9935 29.2051 15.8433C28.1278 15.1537 26.924 14.6854 25.664 14.4657C25.664 14.0366 25.4936 13.625 25.1902 13.3216C24.8869 13.0181 24.4755 12.8477 24.0464 12.8477C23.6154 12.8476 23.2017 13.0174 22.8949 13.3202C22.588 13.6231 22.4128 14.0346 22.407 14.4657C21.0525 14.52 19.7684 15.084 18.8119 16.045C17.8553 17.0059 17.2969 18.2928 17.2484 19.648C17.2484 23.1028 19.7184 24.3491 22.4945 25.1363V28.7442C21.5175 28.4469 20.6001 27.9806 19.784 27.3666C19.4502 27.1142 19.0439 26.9762 18.6255 26.9731C18.3739 26.973 18.1248 27.023 17.8926 27.1199C17.6605 27.2169 17.4498 27.359 17.273 27.5379C17.0961 27.7169 16.9565 27.9292 16.8622 28.1625C16.7679 28.3959 16.7209 28.6456 16.7238 28.8973C16.7215 29.2243 16.8026 29.5464 16.9594 29.8334C17.1163 30.1203 17.3436 30.3626 17.62 30.5372C19.0417 31.5513 20.6812 32.2178 22.407 32.4833V33.511C22.4128 33.9421 22.588 34.3536 22.8949 34.6565C23.2017 34.9593 23.6154 35.1291 24.0464 35.129C24.4755 35.129 24.8869 34.9586 25.1902 34.6551C25.4936 34.3517 25.664 33.9401 25.664 33.511V32.527C27.0379 32.4673 28.3388 31.8917 29.3071 30.9149C30.2754 29.9382 30.84 28.6321 30.8883 27.2573C30.8883 24.5897 29.2488 22.7748 25.5766 21.769ZM26.8662 27.4322C26.8589 27.7872 26.7249 28.1278 26.4883 28.3925C26.2518 28.6572 25.9284 28.8285 25.5766 28.8754V25.9016C26.7569 26.3827 26.8662 26.7763 26.8662 27.4322ZM21.2704 19.4074C21.2775 19.0698 21.4046 18.7457 21.629 18.4933C21.8533 18.2408 22.1601 18.0766 22.4945 18.0299V20.8725C21.3797 20.3914 21.2704 19.9541 21.2704 19.4074Z" fill="#F3D22F"/>
<path d="M24.5382 39.2586V11.7949H26.2976V39.2586H24.5382ZM30.4601 20.034C30.3313 18.9469 29.8092 18.103 28.8938 17.5022C27.9783 16.9015 26.8555 16.6011 25.5252 16.6011C24.5525 16.6011 23.7014 16.7584 22.9719 17.0731C22.2496 17.3878 21.6846 17.8205 21.2769 18.3712C20.8764 18.9219 20.6761 19.5477 20.6761 20.2486C20.6761 20.835 20.8156 21.3393 21.0945 21.7612C21.3806 22.176 21.7454 22.5229 22.1888 22.8018C22.6322 23.0736 23.0971 23.2989 23.5834 23.4777C24.0698 23.6494 24.5168 23.7888 24.9244 23.8961L27.1558 24.4969C27.728 24.6471 28.3645 24.8545 29.0654 25.1191C29.7735 25.3837 30.4493 25.7449 31.093 26.2026C31.7438 26.6532 32.2802 27.2325 32.7022 27.9405C33.1242 28.6486 33.3352 29.5176 33.3352 30.5474C33.3352 31.7347 33.024 32.8075 32.4018 33.7658C31.7868 34.7242 30.8856 35.4859 29.6984 36.0509C28.5183 36.6159 27.0843 36.8984 25.3965 36.8984C23.823 36.8984 22.4606 36.6445 21.3091 36.1367C20.1648 35.6289 19.2636 34.9209 18.6056 34.0126C17.9548 33.1043 17.5865 32.0494 17.5007 30.8478H20.247C20.3185 31.6775 20.5975 32.3641 21.0838 32.9076C21.5773 33.444 22.1995 33.8445 22.9505 34.1091C23.7086 34.3666 24.5239 34.4953 25.3965 34.4953C26.412 34.4953 27.3239 34.3309 28.1321 34.0019C28.9403 33.6657 29.5804 33.2008 30.0524 32.6072C30.5244 32.0065 30.7604 31.3056 30.7604 30.5045C30.7604 29.775 30.5566 29.1814 30.1489 28.7237C29.7413 28.266 29.2049 27.8941 28.5398 27.608C27.8746 27.3219 27.1558 27.0716 26.3834 26.857L23.68 26.0846C21.9635 25.5911 20.6046 24.8866 19.6033 23.9712C18.6021 23.0557 18.1014 21.8578 18.1014 20.3773C18.1014 19.1472 18.434 18.0744 19.0991 17.1589C19.7714 16.2363 20.6726 15.5211 21.8026 15.0133C22.9397 14.4984 24.2092 14.2409 25.611 14.2409C27.0271 14.2409 28.2859 14.4948 29.3873 15.0026C30.4887 15.5032 31.3612 16.1898 32.0049 17.0624C32.6557 17.9349 32.999 18.9255 33.0348 20.034H30.4601Z" fill="#E27017"/>
<path opacity="0.27" d="M41.4682 14.3563C40.7804 13.0595 39.952 11.8423 38.9982 10.7266L11.5654 38.1464C12.6812 39.1104 13.9064 39.9397 15.2158 40.6173L41.4682 14.3563Z" fill="#F6E145"/>
<path opacity="0.27" d="M28.7471 4.47266L5.31445 27.8911C5.99905 30.8018 7.35385 33.5123 9.2709 35.8065L36.6599 8.43039C34.3638 6.51677 31.6552 5.16202 28.7471 4.47266Z" fill="#F6E145"/>
<path opacity="0.27" d="M42.5607 16.8928L17.751 41.7325C18.3893 41.9551 19.0387 42.1448 19.6964 42.301L43.1509 18.8608C43.0005 18.1918 42.8033 17.5342 42.5607 16.8928Z" fill="#F6E145"/>
<path d="M148.085 355.607C168.718 352.367 182.819 333.01 179.58 312.371C176.342 291.731 156.991 277.626 136.358 280.866C115.726 284.105 101.625 303.462 104.864 324.102C108.102 344.741 127.453 358.846 148.085 355.607Z" fill="#F4BC1D"/>
<path d="M110.563 298.104C115.939 289.665 124.437 283.699 134.198 281.511C143.96 279.323 154.19 281.091 162.652 286.428H162.521C158.331 283.76 153.658 281.944 148.766 281.084C143.875 280.223 138.863 280.334 134.014 281.411C124.223 283.587 115.697 289.564 110.311 298.028C104.925 306.492 103.122 316.749 105.296 326.544C107.471 336.338 113.446 344.867 121.907 350.255H122.038C113.618 344.849 107.682 336.325 105.531 326.551C103.38 316.776 105.19 306.547 110.563 298.104Z" fill="#F7E133"/>
<path d="M158.237 293.491C163.133 296.653 166.984 301.196 169.303 306.545C171.622 311.894 172.306 317.81 171.268 323.547C170.23 329.284 167.516 334.585 163.47 338.782C159.424 342.979 154.226 345.883 148.532 347.128C142.838 348.373 136.903 347.903 131.475 345.778C126.048 343.654 121.371 339.968 118.034 335.188C114.698 330.407 112.851 324.745 112.727 318.916C112.604 313.087 114.208 307.352 117.339 302.434C121.58 295.826 128.269 291.173 135.938 289.496C143.606 287.819 151.627 289.256 158.237 293.491Z" fill="#F6E145"/>
<path d="M144.224 347.674C160.472 346.569 172.748 332.497 171.643 316.244C170.538 299.99 156.471 287.71 140.223 288.816C123.975 289.921 111.699 303.993 112.804 320.246C113.909 336.499 127.976 348.779 144.224 347.674Z" fill="#EAAC17"/>
<path d="M141.012 314.438L135.22 310.743C136.184 310.018 137.216 309.388 138.302 308.863C138.938 308.549 139.481 308.074 139.876 307.485C140.146 307.071 140.331 306.608 140.42 306.122C140.509 305.636 140.5 305.138 140.394 304.655C140.289 304.173 140.088 303.716 139.803 303.312C139.519 302.908 139.157 302.565 138.739 302.303C138.17 301.955 137.515 301.771 136.848 301.771C136.181 301.771 135.527 301.955 134.958 302.303C132.707 303.344 130.692 304.832 129.034 306.676C128.684 306.45 128.293 306.295 127.884 306.221C127.474 306.147 127.054 306.155 126.647 306.244C126.241 306.334 125.856 306.503 125.515 306.742C125.174 306.981 124.884 307.286 124.662 307.638C124.215 308.345 124.063 309.199 124.238 310.017C124.414 310.835 124.904 311.551 125.602 312.011C123.088 317.565 124.312 322.944 128.771 325.918C134.455 329.526 139.111 326.793 143.286 323.053L149.362 326.924C147.854 328.231 146.121 329.254 144.247 329.941C143.688 330.036 143.157 330.257 142.695 330.588C142.233 330.919 141.853 331.351 141.583 331.851C141.313 332.351 141.161 332.905 141.137 333.473C141.114 334.041 141.22 334.606 141.447 335.126C141.675 335.647 142.018 336.109 142.451 336.477C142.884 336.845 143.394 337.109 143.945 337.25C144.495 337.391 145.07 337.405 145.626 337.29C146.182 337.175 146.705 336.935 147.155 336.589C150.312 335.33 153.127 333.345 155.374 330.794L157.057 331.865C157.771 332.307 158.631 332.449 159.449 332.261C160.267 332.072 160.979 331.569 161.429 330.86C161.655 330.51 161.809 330.119 161.883 329.709C161.958 329.299 161.95 328.879 161.86 328.472C161.771 328.065 161.602 327.681 161.362 327.34C161.123 326.999 160.819 326.709 160.467 326.486L158.871 325.459C161.407 319.73 160.183 314.263 155.614 311.355C151.046 308.447 146.521 309.475 141.012 314.438ZM151.701 318.243C152.278 318.631 152.697 319.211 152.886 319.88C153.074 320.549 153.018 321.263 152.729 321.895L147.832 318.768C149.865 317.346 150.783 317.653 151.701 318.243ZM132.662 319.008C132.102 318.648 131.688 318.102 131.492 317.466C131.296 316.83 131.331 316.144 131.591 315.532L136.313 318.527C134.389 319.861 133.559 319.577 132.662 319.096V319.008Z" fill="#FAEF41"/>
<path d="M140.946 314.395L135.175 310.721C136.141 309.991 137.173 309.354 138.258 308.819C138.891 308.52 139.429 308.051 139.81 307.463C140.084 307.052 140.272 306.59 140.365 306.104C140.457 305.619 140.451 305.12 140.347 304.636C140.243 304.153 140.043 303.696 139.759 303.291C139.476 302.887 139.114 302.543 138.695 302.281C138.13 301.933 137.479 301.748 136.815 301.748C136.151 301.748 135.5 301.933 134.935 302.281C132.69 303.33 130.676 304.817 129.011 306.654C128.662 306.428 128.271 306.273 127.861 306.199C127.452 306.125 127.031 306.133 126.625 306.222C126.218 306.312 125.833 306.481 125.493 306.72C125.152 306.96 124.862 307.264 124.64 307.616C124.192 308.323 124.04 309.177 124.216 309.995C124.392 310.813 124.881 311.529 125.579 311.989C123.066 317.543 124.268 322.922 128.727 325.852C134.389 329.46 139.023 326.727 143.198 322.966L149.231 326.814C147.727 328.117 146.002 329.139 144.138 329.832C143.601 329.95 143.096 330.185 142.66 330.521C142.225 330.856 141.868 331.284 141.617 331.773C141.365 332.262 141.224 332.8 141.204 333.35C141.185 333.9 141.287 334.447 141.503 334.953C141.719 335.459 142.043 335.911 142.454 336.276C142.865 336.642 143.351 336.913 143.878 337.069C144.406 337.225 144.961 337.263 145.504 337.18C146.048 337.097 146.566 336.895 147.023 336.589C150.17 335.313 152.976 333.322 155.22 330.772L156.881 331.844C157.596 332.285 158.455 332.427 159.274 332.239C160.092 332.05 160.803 331.547 161.253 330.838C161.479 330.488 161.634 330.097 161.708 329.687C161.782 329.278 161.774 328.857 161.685 328.45C161.595 328.044 161.426 327.659 161.187 327.318C160.948 326.977 160.643 326.687 160.291 326.465L158.696 325.459C161.253 319.708 160.029 314.263 155.504 311.377C150.979 308.491 146.433 309.409 140.946 314.395ZM151.57 318.177C152.148 318.558 152.571 319.133 152.764 319.799C152.956 320.464 152.905 321.176 152.619 321.807L147.722 318.702C149.755 317.259 150.673 317.587 151.57 318.177ZM132.596 318.965C132.046 318.602 131.643 318.055 131.458 317.422C131.274 316.789 131.321 316.111 131.591 315.51L136.268 318.484C134.323 319.839 133.492 319.533 132.596 318.965Z" fill="#F3D22F"/>
<path d="M169.063 334.608L123.974 305.896L125.813 303.007L170.902 331.719L169.063 334.608ZM143.689 304.785C141.77 303.86 139.839 303.835 137.896 304.71C135.953 305.586 134.286 307.115 132.896 309.3C131.88 310.897 131.249 312.459 131.003 313.986C130.765 315.501 130.885 316.881 131.363 318.126C131.849 319.36 132.667 320.343 133.817 321.076C134.78 321.689 135.754 321.987 136.738 321.97C137.718 321.934 138.669 321.698 139.59 321.261C140.5 320.817 141.355 320.289 142.157 319.678C142.947 319.058 143.643 318.47 144.245 317.913L147.563 314.877C148.408 314.094 149.413 313.266 150.58 312.392C151.755 311.506 153.054 310.773 154.478 310.195C155.898 309.597 157.409 309.322 159.013 309.37C160.616 309.417 162.263 309.979 163.954 311.056C165.903 312.297 167.339 313.929 168.263 315.953C169.193 317.965 169.502 320.241 169.189 322.781C168.884 325.31 167.849 327.96 166.085 330.731C164.441 333.315 162.6 335.287 160.564 336.647C158.534 337.995 156.43 338.734 154.251 338.865C152.08 338.984 149.963 338.486 147.901 337.371L150.771 332.861C152.207 333.611 153.626 333.871 155.027 333.641C156.423 333.391 157.731 332.788 158.95 331.832C160.165 330.856 161.228 329.652 162.14 328.219C163.201 326.551 163.884 324.882 164.188 323.211C164.481 321.532 164.387 319.995 163.905 318.6C163.412 317.196 162.508 316.076 161.193 315.239C159.996 314.476 158.808 314.19 157.63 314.381C156.453 314.572 155.282 315.064 154.117 315.857C152.952 316.65 151.79 317.569 150.631 318.613L146.538 322.244C143.934 324.547 141.357 326.042 138.808 326.729C136.259 327.416 133.769 326.986 131.338 325.438C129.319 324.152 127.905 322.484 127.097 320.435C126.285 318.367 126.052 316.139 126.4 313.753C126.742 311.347 127.646 308.993 129.111 306.691C130.591 304.366 132.323 302.565 134.308 301.287C136.281 300.002 138.32 299.287 140.425 299.142C142.537 298.985 144.522 299.457 146.38 300.558L143.689 304.785Z" fill="#E27017"/>
<path opacity="0.27" d="M145.406 280.568C142.549 280.327 139.674 280.415 136.837 280.83L153.187 354.453C155.935 353.638 158.577 352.501 161.056 351.064L145.406 280.568Z" fill="#F6E145"/>
<path opacity="0.27" d="M115.896 291.107L129.863 354.081C135.353 355.996 141.212 356.61 146.979 355.874L130.65 282.251C125.117 284.031 120.069 287.061 115.896 291.107Z" fill="#F6E145"/>
<path opacity="0.27" d="M150.717 281.399L165.515 348.068C166.543 347.259 167.548 346.385 168.51 345.466L154.52 282.492C153.271 282.065 152.002 281.7 150.717 281.399Z" fill="#F6E145"/>
</g>
</svg>
