<svg width="450" height="652" viewBox="0 0 450 652" fill="none" xmlns="http://www.w3.org/2000/svg">
<g opacity="0.84">
<path d="M34.9526 555.481C54.2564 555.481 69.9052 539.827 69.9052 520.517C69.9052 501.207 54.2564 485.553 34.9526 485.553C15.6488 485.553 0 501.207 0 520.517C0 539.827 15.6488 555.481 34.9526 555.481Z" fill="#F4BC1D"/>
<path d="M35.0538 485.836C44.2994 485.836 53.1684 489.5 59.7192 496.026C66.27 502.553 69.969 511.41 70.0064 520.658V520.537C69.787 511.407 66.0071 502.725 59.4743 496.345C52.9414 489.965 44.1735 486.394 35.0437 486.394C25.9139 486.394 17.1461 489.965 10.6132 496.345C4.08037 502.725 0.300477 511.407 0.0810547 520.537C0.0810547 520.537 0.0810547 520.537 0.0810547 520.658C0.11315 511.405 3.81321 502.542 10.3696 496.013C16.9259 489.485 25.8032 485.825 35.0538 485.836Z" fill="#F7E133"/>
<path d="M34.9532 548.185C50.0057 548.185 62.2082 535.888 62.2082 520.719C62.2082 505.55 50.0057 493.253 34.9532 493.253C19.9007 493.253 7.69824 505.55 7.69824 520.719C7.69824 535.888 19.9007 548.185 34.9532 548.185Z" fill="#F6E145"/>
<path d="M34.9532 547.781C50.0057 547.781 62.2082 535.574 62.2082 520.517C62.2082 505.459 50.0057 493.253 34.9532 493.253C19.9007 493.253 7.69824 505.459 7.69824 520.517C7.69824 535.574 19.9007 547.781 34.9532 547.781Z" fill="#EAAC17"/>
<path d="M37.3364 517.687V511.341C38.377 511.731 39.3782 512.218 40.3266 512.797C40.8846 513.145 41.5275 513.334 42.1854 513.342C42.6415 513.348 43.0941 513.262 43.5168 513.091C43.9396 512.919 44.3239 512.665 44.6474 512.343C44.9709 512.021 45.2271 511.639 45.401 511.217C45.5749 510.795 45.6631 510.343 45.6604 509.886C45.6662 509.27 45.5012 508.665 45.1838 508.137C44.8664 507.609 44.409 507.179 43.8623 506.895C41.9331 505.662 39.7756 504.831 37.5183 504.45C37.4571 503.712 37.1208 503.024 36.5763 502.523C36.0318 502.021 35.3187 501.743 34.5786 501.743C33.8385 501.743 33.1255 502.021 32.5809 502.523C32.0364 503.024 31.7002 503.712 31.639 504.45C26.0829 505.238 22.4058 508.916 22.4058 513.827C22.4058 520.052 26.8304 522.336 31.8208 523.73V530.38C30.0597 529.855 28.4094 529.013 26.9517 527.894C26.3688 527.452 25.6622 527.205 24.9313 527.186C24.477 527.181 24.0263 527.267 23.6058 527.439C23.1853 527.611 22.8035 527.865 22.4832 528.188C22.1629 528.51 21.9106 528.893 21.7411 529.315C21.5716 529.737 21.4885 530.188 21.4966 530.642C21.489 531.235 21.6336 531.819 21.9166 532.339C22.1997 532.859 22.6116 533.298 23.113 533.613C25.6637 535.436 28.6034 536.64 31.6996 537.13V538.969C31.7608 539.707 32.097 540.395 32.6415 540.896C33.1861 541.398 33.8991 541.676 34.6392 541.676C35.3793 541.676 36.0924 541.398 36.6369 540.896C37.1815 540.395 37.5177 539.707 37.5789 538.969V537.211C43.2966 536.362 46.9535 532.684 46.9535 527.692C46.9535 522.7 43.9431 519.506 37.3364 517.687ZM39.6599 527.914C39.6472 528.556 39.4065 529.173 38.9809 529.655C38.5552 530.136 37.9724 530.45 37.3364 530.541V525.145C39.4781 526.034 39.6599 526.903 39.6599 527.914ZM29.558 513.443C29.5655 512.835 29.7891 512.248 30.1888 511.789C30.5885 511.33 31.1383 511.028 31.74 510.937V516.091C29.8004 515.222 29.6388 514.413 29.6388 513.443H29.558Z" fill="#FAEF41"/>
<path d="M37.3371 517.607V511.301C38.3777 511.69 39.3789 512.177 40.3273 512.756C40.8853 513.105 41.5282 513.293 42.1861 513.302C42.6422 513.307 43.0948 513.222 43.5175 513.05C43.9403 512.878 44.3246 512.624 44.6481 512.303C44.9716 511.981 45.2278 511.598 45.4017 511.176C45.5757 510.754 45.6638 510.302 45.6611 509.846C45.6631 509.233 45.4964 508.632 45.1792 508.108C44.862 507.584 44.4066 507.157 43.863 506.875C41.9338 505.642 39.7763 504.81 37.519 504.429C37.4578 503.692 37.1215 503.004 36.577 502.502C36.0325 502.001 35.3194 501.723 34.5793 501.723C33.8392 501.723 33.1262 502.001 32.5816 502.502C32.0371 503.004 31.7008 503.692 31.6396 504.429C26.0836 505.197 22.4065 508.855 22.4065 513.746C22.4065 519.951 26.8311 522.215 31.8215 523.609V530.218C30.0646 529.693 28.4157 528.858 26.9524 527.752C26.3694 527.311 25.6628 527.063 24.932 527.045C24.4794 527.039 24.0304 527.125 23.6112 527.295C23.192 527.466 22.8113 527.719 22.4912 528.039C22.1712 528.359 21.9184 528.74 21.7477 529.159C21.577 529.579 21.4919 530.028 21.4973 530.481C21.4912 531.07 21.6366 531.651 21.9197 532.167C22.2028 532.684 22.6139 533.119 23.1136 533.431C25.6611 535.256 28.603 536.454 31.7003 536.928V538.767C31.7615 539.505 32.0977 540.193 32.6422 540.694C33.1868 541.195 33.8998 541.474 34.6399 541.474C35.38 541.474 36.0931 541.195 36.6376 540.694C37.1822 540.193 37.5184 539.505 37.5796 538.767V537.009C43.2973 536.14 46.9542 532.502 46.9542 527.51C46.9542 522.518 43.9438 519.425 37.3371 517.607ZM39.6606 527.712C39.6472 528.352 39.4058 528.966 38.9798 529.444C38.5539 529.922 37.9714 530.232 37.3371 530.319V524.963C39.4788 525.913 39.6606 526.782 39.6606 527.793V527.712ZM29.5587 513.302C29.5702 512.694 29.7952 512.11 30.1942 511.652C30.5931 511.194 31.1406 510.89 31.7407 510.796V515.929C29.8011 515.161 29.6395 514.353 29.6395 513.383L29.5587 513.302Z" fill="#F3D22F"/>
<path d="M34.0882 548.436V494.073H37.5708V548.436H34.0882ZM45.8103 510.382C45.5555 508.23 44.522 506.559 42.7099 505.37C40.8978 504.181 38.6751 503.586 36.0419 503.586C34.1165 503.586 32.4318 503.898 30.9877 504.521C29.5579 505.144 28.4395 506 27.6325 507.09C26.8397 508.18 26.4433 509.419 26.4433 510.807C26.4433 511.967 26.7194 512.966 27.2715 513.801C27.8378 514.622 28.5598 515.309 29.4375 515.861C30.3153 516.399 31.2355 516.845 32.1982 517.199C33.1609 517.538 34.0457 517.814 34.8527 518.027L39.2697 519.216C40.4023 519.513 41.6623 519.924 43.0497 520.448C44.4512 520.971 45.7891 521.686 47.0632 522.592C48.3516 523.484 49.4133 524.631 50.2486 526.033C51.0839 527.434 51.5015 529.154 51.5015 531.193C51.5015 533.543 50.8857 535.667 49.654 537.564C48.4365 539.461 46.6527 540.968 44.3026 542.087C41.9667 543.205 39.1281 543.764 35.787 543.764C32.6725 543.764 29.9755 543.262 27.6962 542.257C25.431 541.252 23.6472 539.85 22.3448 538.052C21.0565 536.254 20.3274 534.166 20.1575 531.788H25.5939C25.7354 533.43 26.2876 534.789 27.2502 535.865C28.2271 536.927 29.4588 537.719 30.9453 538.243C32.4459 538.753 34.0599 539.008 35.787 539.008C37.7974 539.008 39.6024 538.682 41.2022 538.031C42.8019 537.365 44.069 536.445 45.0034 535.27C45.9377 534.081 46.4049 532.694 46.4049 531.108C46.4049 529.664 46.0015 528.489 45.1945 527.583C44.3875 526.677 43.3257 525.941 42.0091 525.374C40.6925 524.808 39.2697 524.312 37.7407 523.888L32.3893 522.359C28.9916 521.382 26.3017 519.987 24.3197 518.175C22.3377 516.363 21.3467 513.992 21.3467 511.061C21.3467 508.626 22.005 506.503 23.3216 504.691C24.6524 502.864 26.4362 501.449 28.673 500.443C30.924 499.424 33.4369 498.914 36.2118 498.914C39.0149 498.914 41.5065 499.417 43.6868 500.422C45.867 501.413 47.5941 502.772 48.8683 504.5C50.1566 506.227 50.8361 508.187 50.9069 510.382H45.8103Z" fill="#E27017"/>
<path opacity="0.27" d="M65.9046 504.308C64.6735 501.965 63.1825 499.769 61.4598 497.76L12.1826 547.114C14.1874 548.841 16.3838 550.333 18.7287 551.56L65.9046 504.308Z" fill="#F6E145"/>
<path opacity="0.27" d="M43.135 486.482L1.03027 528.601C2.27293 533.804 4.70754 538.647 8.14199 542.748L57.2777 493.637C53.1773 490.194 48.3372 487.746 43.135 486.482Z" fill="#F6E145"/>
<path opacity="0.27" d="M67.9046 508.855L23.2744 553.5C24.4275 553.905 25.6009 554.249 26.7899 554.531L68.9351 512.392C68.6559 511.196 68.3119 510.015 67.9046 508.855Z" fill="#F6E145"/>
<path d="M332.685 306.972C337.88 284.797 324.121 262.607 301.953 257.41C279.785 252.213 257.602 265.977 252.407 288.152C247.212 310.327 260.971 332.517 283.139 337.714C305.307 342.911 327.489 329.148 332.685 306.972Z" fill="#F4BC1D"/>
<path d="M292.56 256.74C303.468 256.746 313.929 261.073 321.655 268.775C329.381 276.477 333.743 286.926 333.787 297.837V297.67C333.787 286.732 329.443 276.243 321.712 268.509C313.98 260.775 303.494 256.43 292.56 256.43C281.627 256.43 271.14 260.775 263.409 268.509C255.677 276.243 251.334 286.732 251.334 297.67V297.837C251.378 286.926 255.74 276.477 263.466 268.775C271.192 261.073 281.653 256.746 292.56 256.74Z" fill="#F7E133"/>
<path d="M292.56 330.209C310.315 330.209 324.707 315.705 324.707 297.813C324.707 279.921 310.315 265.417 292.56 265.417C274.806 265.417 260.413 279.921 260.413 297.813C260.413 315.705 274.806 330.209 292.56 330.209Z" fill="#F6E145"/>
<path d="M292.56 329.732C310.315 329.732 324.707 315.335 324.707 297.574C324.707 279.814 310.315 265.417 292.56 265.417C274.806 265.417 260.413 279.814 260.413 297.574C260.413 315.335 274.806 329.732 292.56 329.732Z" fill="#EAAC17"/>
<path d="M295.396 294.237V286.752C296.624 287.211 297.805 287.786 298.923 288.468C299.541 288.859 300.252 289.078 300.982 289.102C301.713 289.126 302.437 288.954 303.079 288.604C303.72 288.253 304.257 287.738 304.632 287.111C305.008 286.483 305.209 285.767 305.215 285.036C305.216 284.31 305.019 283.598 304.645 282.976C304.272 282.354 303.735 281.846 303.094 281.508C300.816 280.036 298.261 279.046 295.587 278.599C295.59 278.147 295.504 277.698 295.333 277.278C295.162 276.859 294.909 276.478 294.59 276.157C294.271 275.835 293.892 275.58 293.474 275.406C293.056 275.232 292.608 275.143 292.155 275.143C291.237 275.143 290.356 275.506 289.704 276.154C289.052 276.801 288.683 277.68 288.676 278.599C282.099 279.529 277.762 283.868 277.762 289.636C277.762 297.002 283.005 299.672 288.891 301.317V309.184C286.812 308.551 284.86 307.559 283.124 306.252C282.445 305.714 281.606 305.42 280.741 305.417C279.859 305.43 279.005 305.727 278.305 306.264C277.606 306.8 277.098 307.549 276.857 308.397C276.616 309.246 276.655 310.149 276.969 310.974C277.282 311.798 277.853 312.5 278.596 312.974C281.606 315.138 285.084 316.559 288.748 317.122V319.315C288.76 320.23 289.132 321.103 289.783 321.745C290.435 322.387 291.312 322.748 292.227 322.748C293.137 322.748 294.01 322.386 294.653 321.742C295.297 321.098 295.659 320.225 295.659 319.315V317.241C302.426 316.216 306.74 311.901 306.74 305.989C306.74 300.077 303.165 296.383 295.396 294.237ZM298.137 306.275C298.122 307.033 297.838 307.761 297.336 308.329C296.834 308.896 296.147 309.267 295.396 309.374V303.033C297.899 304.082 298.137 305.107 298.137 306.275ZM286.222 289.207C286.236 288.487 286.505 287.795 286.98 287.254C287.456 286.713 288.107 286.358 288.819 286.251V292.33C286.508 291.305 286.293 290.375 286.293 289.207H286.222Z" fill="#FAEF41"/>
<path d="M295.397 294.142V286.68C296.624 287.139 297.805 287.714 298.923 288.397C299.572 288.81 300.323 289.033 301.092 289.04C301.63 289.05 302.165 288.952 302.664 288.753C303.164 288.553 303.619 288.256 304.003 287.879C304.387 287.502 304.692 287.052 304.9 286.555C305.108 286.059 305.215 285.526 305.215 284.988C305.217 284.265 305.02 283.556 304.646 282.938C304.272 282.32 303.735 281.816 303.094 281.484C300.815 280.019 298.26 279.038 295.587 278.599C295.587 277.689 295.226 276.816 294.582 276.172C293.939 275.528 293.066 275.167 292.156 275.167C291.241 275.166 290.363 275.527 289.712 276.169C289.061 276.811 288.689 277.684 288.676 278.599C282.099 279.529 277.762 283.844 277.762 289.589C277.762 296.907 283.005 299.577 288.891 301.222V309.04C286.808 308.418 284.854 307.424 283.124 306.108C282.52 305.659 281.803 305.386 281.053 305.32C280.303 305.253 279.55 305.396 278.876 305.731C278.202 306.067 277.635 306.583 277.236 307.222C276.838 307.861 276.624 308.597 276.618 309.35C276.613 310.045 276.786 310.729 277.119 311.338C277.453 311.947 277.937 312.461 278.525 312.831C281.542 314.975 285.018 316.387 288.676 316.955V319.124C288.689 320.039 289.061 320.912 289.712 321.554C290.363 322.197 291.241 322.557 292.156 322.557C293.066 322.557 293.939 322.195 294.582 321.551C295.226 320.907 295.587 320.034 295.587 319.124V317.05C302.355 316.049 306.668 311.734 306.668 305.87C306.668 300.006 303.165 296.287 295.397 294.142ZM298.137 306.061C298.121 306.816 297.837 307.54 297.334 308.104C296.832 308.668 296.145 309.034 295.397 309.136V302.819C297.899 303.939 298.137 304.964 298.137 306.132V306.061ZM286.222 289.064C286.237 288.347 286.507 287.658 286.983 287.121C287.458 286.584 288.109 286.234 288.819 286.132V292.187C286.508 291.233 286.293 290.304 286.293 289.136L286.222 289.064Z" fill="#F3D22F"/>
<path d="M289.89 328.284V264.83H293.955V328.284H289.89ZM303.573 283.866C303.275 281.354 302.069 279.405 299.954 278.017C297.839 276.628 295.244 275.934 292.171 275.934C289.923 275.934 287.957 276.298 286.271 277.025C284.602 277.752 283.297 278.752 282.355 280.024C281.43 281.297 280.967 282.743 280.967 284.362C280.967 285.717 281.289 286.882 281.934 287.857C282.595 288.815 283.437 289.617 284.462 290.261C285.486 290.889 286.56 291.41 287.684 291.823C288.808 292.219 289.841 292.542 290.783 292.79L295.938 294.178C297.26 294.525 298.731 295.004 300.35 295.615C301.986 296.227 303.548 297.061 305.035 298.119C306.539 299.16 307.778 300.498 308.753 302.134C309.728 303.77 310.215 305.778 310.215 308.157C310.215 310.901 309.497 313.379 308.059 315.594C306.638 317.808 304.556 319.568 301.813 320.873C299.086 322.179 295.773 322.831 291.873 322.831C288.238 322.831 285.09 322.245 282.429 321.071C279.785 319.898 277.703 318.262 276.183 316.164C274.679 314.065 273.828 311.628 273.63 308.851H279.975C280.141 310.768 280.785 312.355 281.909 313.611C283.049 314.85 284.487 315.775 286.222 316.387C287.973 316.982 289.857 317.279 291.873 317.279C294.22 317.279 296.327 316.899 298.194 316.139C300.061 315.362 301.54 314.288 302.631 312.917C303.721 311.528 304.267 309.909 304.267 308.058C304.267 306.373 303.796 305.001 302.854 303.944C301.912 302.886 300.673 302.027 299.136 301.366C297.599 300.705 295.938 300.126 294.154 299.631L287.907 297.846C283.941 296.706 280.802 295.078 278.488 292.963C276.175 290.848 275.018 288.08 275.018 284.659C275.018 281.817 275.786 279.338 277.323 277.223C278.877 275.092 280.959 273.439 283.57 272.266C286.197 271.076 289.13 270.481 292.369 270.481C295.641 270.481 298.549 271.068 301.094 272.241C303.639 273.398 305.655 274.984 307.142 277C308.646 279.016 309.439 281.305 309.521 283.866H303.573Z" fill="#E27017"/>
<path opacity="0.27" d="M329.092 278.456C327.638 275.682 325.871 273.082 323.826 270.709L265.704 328.874C268.072 330.907 270.662 332.666 273.425 334.118L329.092 278.456Z" fill="#F6E145"/>
<path opacity="0.27" d="M302.116 257.455L252.454 307.157C253.937 313.288 256.807 318.997 260.842 323.844L318.893 265.774C314.011 261.753 308.272 258.907 302.116 257.455Z" fill="#F6E145"/>
<path opacity="0.27" d="M331.428 283.82L278.787 336.454C280.145 336.931 281.527 337.336 282.957 337.694L332.643 287.968C332.314 286.564 331.908 285.179 331.428 283.82Z" fill="#F6E145"/>
<path d="M319.941 43.8971C332.059 43.8971 341.883 34.0704 341.883 21.9485C341.883 9.82669 332.059 0 319.941 0C307.824 0 298 9.82669 298 21.9485C298 34.0704 307.824 43.8971 319.941 43.8971Z" fill="#F4BC1D"/>
<path d="M319.941 0.181666C325.747 0.181627 331.315 2.48296 335.428 6.58164C339.54 10.6803 341.861 16.2423 341.883 22.0494C341.883 16.2282 339.571 10.6456 335.456 6.52941C331.341 2.41326 325.761 0.10083 319.941 0.10083C314.122 0.10083 308.541 2.41326 304.426 6.52941C300.312 10.6456 298 16.2282 298 22.0494C298.027 16.2439 300.35 10.6851 304.461 6.58752C308.572 2.48999 314.138 0.186945 319.941 0.181666Z" fill="#F7E133"/>
<path d="M319.941 39.3293C329.392 39.3293 337.054 31.6109 337.054 22.0898C337.054 12.5687 329.392 4.85034 319.941 4.85034C310.49 4.85034 302.829 12.5687 302.829 22.0898C302.829 31.6109 310.49 39.3293 319.941 39.3293Z" fill="#F6E145"/>
<path d="M336.649 25.8914C338.814 16.6885 333.111 7.47282 323.911 5.30753C314.711 3.14224 305.498 8.84731 303.334 18.0502C301.169 27.253 306.872 36.4687 316.072 38.634C325.272 40.7993 334.485 35.0942 336.649 25.8914Z" fill="#EAAC17"/>
<path d="M321.436 20.1699V16.1278C322.093 16.3717 322.723 16.6833 323.315 17.0575C323.668 17.2754 324.073 17.3941 324.487 17.4011C325.066 17.4011 325.621 17.1711 326.03 16.7618C326.439 16.3524 326.669 15.7973 326.669 15.2184C326.657 14.84 326.539 14.4726 326.328 14.1582C326.117 13.8438 325.822 13.5949 325.477 13.4398C324.249 12.6574 322.874 12.1346 321.436 11.9038C321.436 11.4161 321.243 10.9483 320.898 10.6034C320.553 10.2585 320.085 10.0647 319.598 10.0647C319.11 10.0647 318.643 10.2585 318.298 10.6034C317.953 10.9483 317.759 11.4161 317.759 11.9038C316.225 11.9646 314.771 12.6056 313.691 13.6972C312.611 14.7889 311.985 16.2499 311.941 17.7851C311.941 21.6857 314.729 23.1206 317.86 23.9897V28.1733C316.756 27.848 315.721 27.3203 314.81 26.617C314.432 26.33 313.971 26.1739 313.496 26.1724C313.022 26.1749 312.562 26.3318 312.184 26.6195C311.807 26.9071 311.534 27.3098 311.407 27.7666C311.279 28.2234 311.303 28.7094 311.476 29.1511C311.649 29.5927 311.961 29.9661 312.365 30.2145C313.96 31.3724 315.81 32.1281 317.759 32.4174V33.5896C317.759 34.0774 317.953 34.5452 318.298 34.8901C318.643 35.235 319.11 35.4288 319.598 35.4288C320.085 35.4288 320.553 35.235 320.898 34.8901C321.243 34.5452 321.436 34.0774 321.436 33.5896V32.4781C323.012 32.4308 324.508 31.7711 325.605 30.6392C326.703 29.5072 327.316 27.992 327.316 26.4149C327.498 23.2621 325.578 21.3219 321.436 20.1699ZM322.911 26.5968C322.9 27.0006 322.746 27.3872 322.475 27.6873C322.205 27.9873 321.837 28.1811 321.436 28.2339V24.8587C322.79 25.4246 322.911 25.9703 322.911 26.5968ZM316.608 17.4819C316.618 17.1025 316.761 16.7386 317.012 16.4541C317.263 16.1696 317.606 15.9825 317.982 15.9257V19.1594C316.729 18.6339 316.608 18.1287 316.608 17.4819Z" fill="#FAEF41"/>
<path d="M321.436 20.1295V16.0874C322.093 16.3239 322.723 16.6287 323.315 16.9969C323.668 17.2148 324.073 17.3335 324.487 17.3404C324.773 17.3431 325.056 17.2892 325.321 17.1817C325.585 17.0742 325.826 16.9153 326.029 16.7143C326.232 16.5132 326.393 16.2739 326.503 16.0102C326.613 15.7465 326.669 15.4636 326.669 15.1779C326.65 14.8066 326.528 14.4478 326.318 14.1411C326.107 13.8345 325.816 13.5918 325.477 13.4398C324.249 12.6574 322.874 12.1346 321.436 11.9038C321.436 11.4161 321.243 10.9483 320.898 10.6034C320.553 10.2585 320.085 10.0647 319.598 10.0647C319.11 10.0647 318.643 10.2585 318.298 10.6034C317.953 10.9483 317.759 11.4161 317.759 11.9038C316.228 11.9643 314.777 12.6024 313.698 13.6898C312.618 14.7772 311.99 16.2332 311.941 17.7649C311.941 21.6453 314.729 23.0802 317.86 23.9493V28.1126C316.759 27.7786 315.726 27.2517 314.81 26.5564C314.432 26.2693 313.971 26.1132 313.496 26.1118C313.212 26.1091 312.929 26.1632 312.666 26.2709C312.402 26.3786 312.163 26.5378 311.962 26.7391C311.76 26.9405 311.601 27.18 311.494 27.4436C311.386 27.7071 311.332 27.9896 311.334 28.2743C311.32 28.646 311.409 29.0144 311.591 29.3389C311.773 29.6634 312.041 29.9314 312.365 30.1134C313.964 31.263 315.813 32.0179 317.759 32.3164V33.4684C317.759 33.9561 317.953 34.4239 318.298 34.7688C318.643 35.1138 319.11 35.3075 319.598 35.3075C320.085 35.3075 320.553 35.1138 320.898 34.7688C321.243 34.4239 321.436 33.9561 321.436 33.4684V32.377C323.012 32.3297 324.508 31.6701 325.605 30.5381C326.703 29.4061 327.316 27.8909 327.316 26.3139C327.498 23.1813 325.578 21.2613 321.436 20.1295ZM322.911 26.516C322.9 26.9198 322.746 27.3064 322.475 27.6064C322.205 27.9065 321.837 28.1003 321.436 28.153V24.7981C322.79 25.3438 322.911 25.8895 322.911 26.516ZM316.608 17.4819C316.618 17.1025 316.761 16.7386 317.012 16.4541C317.263 16.1696 317.606 15.9825 317.982 15.9257V19.1392C316.729 18.5935 316.608 18.0882 316.608 17.4819Z" fill="#F3D22F"/>
<path d="M320.455 41.215V9.68771H322.474V41.215H320.455ZM327.253 19.1459C327.105 17.8979 326.506 16.9291 325.455 16.2395C324.404 15.5498 323.115 15.205 321.588 15.205C320.471 15.205 319.494 15.3856 318.657 15.7469C317.827 16.1081 317.179 16.6048 316.711 17.237C316.251 17.8692 316.021 18.5876 316.021 19.3922C316.021 20.0654 316.181 20.6443 316.501 21.1287C316.83 21.6049 317.248 22.0031 317.758 22.3232C318.267 22.6352 318.8 22.8939 319.359 23.0991C319.917 23.2962 320.43 23.4563 320.898 23.5794L323.46 24.2691C324.116 24.4415 324.847 24.6796 325.652 24.9834C326.464 25.2871 327.24 25.7018 327.979 26.2272C328.726 26.7445 329.342 27.4095 329.827 28.2223C330.311 29.0351 330.553 30.0327 330.553 31.2149C330.553 32.5778 330.196 33.8094 329.482 34.9095C328.776 36.0097 327.741 36.8841 326.378 37.5327C325.024 38.1813 323.377 38.5056 321.44 38.5056C319.634 38.5056 318.07 38.2141 316.748 37.6312C315.434 37.0483 314.4 36.2355 313.644 35.1928C312.897 34.1501 312.474 32.9391 312.376 31.5598H315.528C315.611 32.5121 315.931 33.3003 316.489 33.9243C317.056 34.5401 317.77 34.9998 318.632 35.3036C319.502 35.5992 320.438 35.747 321.44 35.747C322.606 35.747 323.652 35.5581 324.58 35.1805C325.508 34.7946 326.243 34.2609 326.785 33.5795C327.327 32.8898 327.597 32.0852 327.597 31.1657C327.597 30.3282 327.363 29.6468 326.896 29.1213C326.428 28.5959 325.812 28.1689 325.048 27.8405C324.285 27.5121 323.46 27.2248 322.573 26.9784L319.469 26.0917C317.499 25.5252 315.939 24.7165 314.79 23.6656C313.64 22.6147 313.065 21.2395 313.065 19.54C313.065 18.1278 313.447 16.8963 314.211 15.8454C314.982 14.7863 316.017 13.9652 317.314 13.3823C318.62 12.7912 320.077 12.4956 321.686 12.4956C323.312 12.4956 324.757 12.7871 326.021 13.37C327.286 13.9447 328.287 14.7329 329.026 15.7345C329.773 16.7362 330.167 17.8733 330.208 19.1459H327.253Z" fill="#E27017"/>
<path opacity="0.27" d="M339.377 11.7826C338.597 10.3385 337.662 8.98319 336.589 7.74048L305.657 38.6018C306.895 39.6864 308.25 40.6287 309.698 41.4111L339.377 11.7826Z" fill="#F6E145"/>
<path opacity="0.27" d="M325.033 0.606201L298.606 27.0617C299.384 30.3386 300.913 33.3899 303.071 35.9744L333.963 5.0727C331.364 2.92563 328.31 1.39826 325.033 0.606201Z" fill="#F6E145"/>
<path opacity="0.27" d="M340.63 14.6321L312.607 42.6437C313.336 42.9058 314.078 43.1284 314.83 43.3107L341.277 16.8552C341.095 16.0872 340.873 15.4607 340.63 14.6321Z" fill="#F6E145"/>
<path d="M425.142 621.863C438.543 605.67 436.284 581.677 420.097 568.272C403.91 554.867 379.924 557.127 366.524 573.319C353.123 589.511 355.382 613.505 371.569 626.91C387.756 640.315 411.742 638.055 425.142 621.863Z" fill="#F4BC1D"/>
<path d="M419.477 568.129C427.33 574.43 432.366 583.588 433.483 593.596C434.6 603.604 431.707 613.647 425.437 621.526V621.416C428.564 617.515 430.892 613.037 432.288 608.237C433.684 603.436 434.122 598.408 433.576 593.438C433.029 588.468 431.51 583.655 429.104 579.273C426.698 574.891 423.453 571.026 419.554 567.898C415.654 564.77 411.178 562.442 406.379 561.045C401.58 559.648 396.553 559.21 391.585 559.757C386.617 560.303 381.805 561.823 377.425 564.23C373.044 566.637 369.18 569.883 366.053 573.783C372.398 565.961 381.583 560.974 391.597 559.914C401.611 558.854 411.636 561.808 419.477 568.129Z" fill="#F7E133"/>
<path d="M418.861 616.355C415.155 620.894 410.19 624.234 404.59 625.954C398.99 627.674 393.006 627.697 387.393 626.021C381.78 624.345 376.789 621.044 373.048 616.534C369.307 612.025 366.985 606.508 366.373 600.681C365.761 594.853 366.888 588.974 369.611 583.786C372.334 578.598 376.531 574.332 381.674 571.526C386.817 568.72 392.675 567.5 398.51 568.019C404.344 568.538 409.895 570.773 414.462 574.443C420.599 579.42 424.509 586.629 425.334 594.489C426.159 602.348 423.83 610.213 418.861 616.355Z" fill="#F6E145"/>
<path d="M418.993 616.179C415.314 620.747 410.365 624.121 404.77 625.877C399.176 627.632 393.187 627.69 387.559 626.043C381.932 624.397 376.918 621.119 373.151 616.624C369.385 612.129 367.034 606.618 366.396 600.788C365.758 594.957 366.861 589.068 369.566 583.864C372.271 578.661 376.457 574.375 381.595 571.55C386.734 568.724 392.593 567.484 398.435 567.988C404.277 568.491 409.839 570.714 414.418 574.377C417.466 576.819 420.003 579.838 421.883 583.261C423.763 586.685 424.949 590.446 425.374 594.329C425.799 598.212 425.454 602.14 424.359 605.89C423.264 609.639 421.441 613.136 418.993 616.179Z" fill="#EAAC17"/>
<path d="M399.814 596.818L404.213 591.428C404.846 592.464 405.369 593.562 405.774 594.706C405.984 595.364 406.369 595.952 406.888 596.407C407.408 596.861 408.041 597.165 408.721 597.285C409.401 597.405 410.1 597.337 410.744 597.088C411.387 596.839 411.951 596.419 412.373 595.872C412.791 595.351 413.06 594.725 413.149 594.062C413.238 593.399 413.144 592.724 412.878 592.11C412.084 589.74 410.82 587.555 409.161 585.686C409.692 585.024 409.938 584.177 409.846 583.334C409.753 582.49 409.329 581.718 408.667 581.187C408.005 580.656 407.159 580.409 406.315 580.502C405.472 580.595 404.7 581.019 404.169 581.682C398.89 578.535 393.172 579.151 389.917 583.332C385.694 588.612 387.893 593.562 391.192 598.16L386.64 603.815C385.523 602.155 384.697 600.318 384.198 598.38C384.044 597.687 383.695 597.052 383.191 596.551C382.688 596.049 382.051 595.703 381.357 595.553C380.663 595.402 379.94 595.454 379.274 595.702C378.608 595.949 378.027 596.383 377.6 596.95C377.195 597.448 376.924 598.04 376.812 598.672C376.701 599.303 376.752 599.953 376.962 600.559C377.885 603.836 379.565 606.851 381.867 609.359L380.613 610.943C380.324 611.266 380.103 611.645 379.964 612.056C379.826 612.468 379.773 612.903 379.809 613.335C379.844 613.768 379.968 614.188 380.171 614.572C380.375 614.955 380.655 615.292 380.994 615.564C381.332 615.835 381.722 616.034 382.141 616.149C382.559 616.264 382.996 616.293 383.426 616.233C383.856 616.174 384.269 616.027 384.64 615.802C385.011 615.577 385.332 615.279 385.584 614.925L386.772 613.451C392.226 616.619 397.769 616.003 401.244 611.735C404.719 607.467 404.169 602.869 399.814 596.818ZM394.821 607.071C394.375 607.61 393.751 607.972 393.062 608.093C392.373 608.214 391.664 608.085 391.06 607.731L394.733 603.155C395.899 605.355 395.503 606.235 394.821 607.071ZM396.163 587.952C396.584 587.44 397.174 587.094 397.827 586.977C398.48 586.861 399.153 586.98 399.726 587.314L396.229 591.714C395.107 589.58 395.503 588.788 396.163 587.952Z" fill="#FAEF41"/>
<path d="M399.858 596.752L404.257 591.384C404.874 592.425 405.389 593.523 405.797 594.662C406.037 595.333 406.455 595.926 407.006 596.378C407.388 596.697 407.829 596.936 408.304 597.081C408.779 597.226 409.279 597.274 409.773 597.223C410.267 597.172 410.746 597.022 411.181 596.782C411.616 596.543 411.999 596.218 412.307 595.828C412.726 595.311 412.995 594.689 413.084 594.029C413.173 593.369 413.079 592.698 412.813 592.088C412.011 589.724 410.739 587.546 409.074 585.686C409.547 585.022 409.748 584.202 409.636 583.395C409.524 582.587 409.107 581.853 408.471 581.344C407.835 580.834 407.028 580.588 406.215 580.654C405.403 580.721 404.647 581.097 404.103 581.704C398.847 578.579 393.216 579.173 389.895 583.332C385.672 588.59 387.894 593.54 391.193 598.116L386.794 603.727C385.659 602.083 384.824 600.25 384.331 598.314C384.137 597.519 383.689 596.808 383.055 596.29C382.671 595.978 382.229 595.745 381.755 595.605C381.28 595.465 380.782 595.422 380.291 595.477C379.799 595.533 379.324 595.686 378.892 595.927C378.46 596.169 378.081 596.494 377.776 596.884C377.369 597.376 377.098 597.966 376.99 598.595C376.882 599.224 376.941 599.871 377.161 600.471C378.093 603.744 379.772 606.757 382.065 609.271L380.812 610.833C380.281 611.495 380.035 612.341 380.127 613.185C380.22 614.029 380.644 614.801 381.306 615.332C381.968 615.863 382.814 616.109 383.658 616.017C384.501 615.924 385.273 615.5 385.804 614.837L386.992 613.341C392.446 616.531 397.989 615.915 401.42 611.691C404.851 607.467 404.235 602.781 399.858 596.752ZM394.91 606.961C394.463 607.5 393.838 607.86 393.147 607.977C392.457 608.095 391.748 607.96 391.149 607.599L394.8 603.045C396.009 605.267 395.591 606.125 394.91 606.961ZM396.207 587.908C396.632 587.399 397.223 587.058 397.876 586.945C398.528 586.832 399.2 586.955 399.77 587.292L396.273 591.692C395.152 589.536 395.548 588.722 396.207 587.908Z" fill="#F3D22F"/>
<path d="M375.771 619.198L410.528 576.151L413.285 578.379L378.528 621.426L375.771 619.198ZM409.381 596.563C410.555 594.696 410.805 592.712 410.131 590.611C409.456 588.511 408.077 586.618 405.993 584.934C404.468 583.703 402.936 582.872 401.394 582.441C399.864 582.02 398.431 581.983 397.095 582.33C395.771 582.686 394.665 583.413 393.778 584.512C393.036 585.431 392.616 586.398 392.519 587.413C392.442 588.425 392.575 589.431 392.917 590.429C393.268 591.417 393.711 592.358 394.247 593.254C394.792 594.139 395.316 594.924 395.819 595.608L398.555 599.375C399.262 600.334 399.996 601.465 400.76 602.768C401.535 604.079 402.137 605.501 402.566 607.033C403.015 608.563 403.123 610.15 402.888 611.794C402.653 613.438 401.884 615.068 400.581 616.682C399.078 618.543 397.233 619.83 395.045 620.545C392.868 621.268 390.492 621.321 387.917 620.704C385.352 620.095 382.748 618.722 380.103 616.585C377.637 614.593 375.824 612.47 374.662 610.217C373.511 607.972 372.995 605.721 373.114 603.464C373.244 601.217 374.002 599.097 375.388 597.105L379.691 600.582C378.753 601.973 378.321 603.402 378.396 604.87C378.49 606.336 378.958 607.751 379.8 609.117C380.662 610.48 381.777 611.714 383.144 612.819C384.736 614.105 386.373 615.001 388.056 615.509C389.747 616.005 391.339 616.087 392.83 615.754C394.33 615.41 395.587 614.61 396.6 613.355C397.524 612.211 397.955 611.023 397.896 609.789C397.836 608.556 397.467 607.294 396.786 606.003C396.106 604.713 395.297 603.41 394.358 602.096L391.099 597.463C389.034 594.516 387.796 591.691 387.385 588.989C386.975 586.286 387.707 583.774 389.58 581.454C391.137 579.526 393.016 578.265 395.217 577.673C397.438 577.078 399.755 577.098 402.169 577.732C404.602 578.365 406.917 579.569 409.114 581.343C411.333 583.136 412.984 585.128 414.067 587.318C415.16 589.497 415.658 591.678 415.562 593.861C415.478 596.053 414.762 598.04 413.415 599.823L409.381 596.563Z" fill="#E27017"/>
<path opacity="0.27" d="M433.289 604.937C433.843 602.105 434.072 599.219 433.971 596.334L358.509 604.607C359.044 607.435 359.892 610.195 361.039 612.835L433.289 604.937Z" fill="#F6E145"/>
<path opacity="0.27" d="M425.899 574.245L361.456 581.307C358.946 586.588 357.696 592.38 357.805 598.226L433.113 589.976C431.955 584.245 429.486 578.861 425.899 574.245Z" fill="#F6E145"/>
<path opacity="0.27" d="M431.771 610.151L363.48 617.697C364.184 618.82 364.954 619.898 365.679 620.976L430.166 613.913C430.767 612.689 431.303 611.433 431.771 610.151Z" fill="#F6E145"/>
</g>
</svg>
